<?xml version="1.0" encoding="UTF-8"?>
<svg width="456px" height="374px" viewBox="0 0 456 374" version="1.1" xmlns="http://www.w3.org/2000/svg" xmlns:xlink="http://www.w3.org/1999/xlink">
    <g id="page" stroke="none" stroke-width="1" fill="none" fill-rule="evenodd">
        <g id="home" transform="translate(-1254.000000, -148.000000)">
            <g id="编组-3" transform="translate(510.000000, 111.000000)">
                <g id="slogan_pic" transform="translate(744.000000, 37.000000)">
                    <g id="Layer_1" fill-rule="nonzero">
                        <g id="编组">
                            <g transform="translate(346.925790, 57.395821)" fill="#000000">
                                <path d="M96.3510947,91.3035061 L12.7231157,91.3035061 C5.69889556,91.3035061 0,85.6080746 0,78.5881242 L0,12.7153819 C0,5.69543147 5.69889556,0 12.7231157,0 L96.3510947,0 C103.375315,0 109.07421,5.69543147 109.07421,12.7153819 L109.07421,78.5881242 C109.07421,85.6080746 103.375315,91.3035061 96.3510947,91.3035061 Z M12.7231157,2.60488726 C7.15675257,2.60488726 2.60647161,7.15240231 2.60647161,12.7153819 L2.60647161,78.5881242 C2.60647161,84.1511038 7.15675257,88.6986188 12.7231157,88.6986188 L96.3510947,88.6986188 C101.917458,88.6986188 106.467739,84.1511038 106.467739,78.5881242 L106.467739,12.7153819 C106.467739,7.15240231 101.917458,2.60488726 96.3510947,2.60488726 L12.7231157,2.60488726 Z" id="形状"></path>
                                <g transform="translate(13.518310, 13.686696)">
                                    <g transform="translate(14.092618, 0.044151)" id="路径">
                                        <path d="M63.2621585,3.53205053 L1.63456694,3.53205053 C0.927727185,3.53205053 0.309242395,2.95809231 0.309242395,2.20753158 C0.309242395,1.45697084 0.8835497,0.883012631 1.63456694,0.883012631 L63.2621585,0.883012631 C63.9689983,0.883012631 64.587483,1.45697084 64.587483,2.20753158 C64.587483,2.95809231 64.0131757,3.53205053 63.2621585,3.53205053 Z"></path>
                                        <path d="M49.1253633,9.84559084 L1.63456694,9.84559084 C0.927727185,9.84559084 0.309242395,9.27163263 0.309242395,8.52107189 C0.309242395,7.77051116 0.8835497,7.19655295 1.63456694,7.19655295 L49.1253633,7.19655295 C49.8322031,7.19655295 50.4506879,7.77051116 50.4506879,8.52107189 C50.4506879,9.27163263 49.8763805,9.84559084 49.1253633,9.84559084 Z"></path>
                                        <path d="M62.9529161,16.7330894 L1.32532455,16.7330894 C0.61848479,16.7330894 -1.25559964e-13,16.1591312 -1.25559964e-13,15.4085704 C-1.25559964e-13,14.6580097 0.574307305,14.0840515 1.32532455,14.0840515 L62.9529161,14.0840515 C63.6597559,14.0840515 64.2782407,14.6580097 64.2782407,15.4085704 C64.2782407,16.1591312 63.7039333,16.7330894 62.9529161,16.7330894 Z"></path>
                                        <path d="M48.8161209,23.0466297 L1.32532455,23.0466297 C0.61848479,23.0466297 -1.25559964e-13,22.4726715 -1.25559964e-13,21.7221107 C-1.25559964e-13,20.97155 0.574307305,20.3975918 1.32532455,20.3975918 L48.8161209,20.3975918 C49.5229607,20.3975918 50.1414455,20.97155 50.1414455,21.7221107 C50.1414455,22.4726715 49.5671382,23.0466297 48.8161209,23.0466297 Z"></path>
                                    </g>
                                    <path d="M4.46192598,8.91842758 C1.98798682,8.91842758 0,6.93164916 0,4.45921379 C0,1.98677842 1.98798682,3.01980663e-14 4.46192598,3.01980663e-14 C6.93586514,3.01980663e-14 8.92385197,1.98677842 8.92385197,4.45921379 C8.92385197,6.93164916 6.93586514,8.91842758 4.46192598,8.91842758 Z M4.46192598,2.60488726 C3.44584383,2.60488726 2.60647161,3.44374926 2.60647161,4.45921379 C2.60647161,5.47467831 3.44584383,6.31354031 4.46192598,6.31354031 C5.47800814,6.31354031 6.31738035,5.47467831 6.31738035,4.45921379 C6.31738035,3.44374926 5.47800814,2.60488726 4.46192598,2.60488726 Z" id="形状"></path>
                                </g>
                                <g transform="translate(13.518310, 52.362649)">
                                    <g transform="translate(14.092618, 0.000000)" id="路径">
                                        <path d="M63.2621585,3.53205053 L1.63456694,3.53205053 C0.927727185,3.53205053 0.309242395,2.95809231 0.309242395,2.20753158 C0.309242395,1.45697084 0.8835497,0.883012631 1.63456694,0.883012631 L63.2621585,0.883012631 C63.9689983,0.883012631 64.587483,1.45697084 64.587483,2.20753158 C64.587483,2.95809231 64.0131757,3.53205053 63.2621585,3.53205053 Z"></path>
                                        <path d="M49.1253633,9.88974147 L1.63456694,9.88974147 C0.927727185,9.88974147 0.309242395,9.31578326 0.309242395,8.56522252 C0.309242395,7.81466179 0.8835497,7.24070358 1.63456694,7.24070358 L49.1253633,7.24070358 C49.8322031,7.24070358 50.4506879,7.81466179 50.4506879,8.56522252 C50.4506879,9.31578326 49.8763805,9.88974147 49.1253633,9.88974147 Z"></path>
                                        <path d="M62.9529161,16.77724 L1.32532455,16.77724 C0.61848479,16.77724 -1.25559964e-13,16.2032818 -1.25559964e-13,15.452721 C-1.25559964e-13,14.7021603 0.574307305,14.1282021 1.32532455,14.1282021 L62.9529161,14.1282021 C63.6597559,14.1282021 64.2782407,14.7021603 64.2782407,15.452721 C64.2782407,16.2032818 63.7039333,16.77724 62.9529161,16.77724 Z"></path>
                                        <path d="M48.8161209,23.0907803 L1.32532455,23.0907803 C0.61848479,23.0907803 -1.25559964e-13,22.5168221 -1.25559964e-13,21.7662614 C-1.25559964e-13,21.0157006 0.574307305,20.4417424 1.32532455,20.4417424 L48.8161209,20.4417424 C49.5229607,20.4417424 50.1414455,21.0157006 50.1414455,21.7662614 C50.1414455,22.5168221 49.5671382,23.0907803 48.8161209,23.0907803 Z"></path>
                                    </g>
                                    <path d="M4.46192598,8.91842758 C1.98798682,8.91842758 0,6.93164916 0,4.45921379 C0,1.98677842 1.98798682,0 4.46192598,0 C6.93586514,0 8.92385197,1.98677842 8.92385197,4.45921379 C8.92385197,6.93164916 6.93586514,8.91842758 4.46192598,8.91842758 Z M4.46192598,2.56073663 C3.44584383,2.56073663 2.60647161,3.39959863 2.60647161,4.41506316 C2.60647161,5.43052768 3.44584383,6.26938968 4.46192598,6.26938968 C5.47800814,6.26938968 6.31738035,5.43052768 6.31738035,4.41506316 C6.31738035,3.39959863 5.47800814,2.56073663 4.46192598,2.56073663 Z" id="形状"></path>
                                </g>
                            </g>
                            <g transform="translate(40.687464, 0.000000)" fill="#000000">
                                <g transform="translate(22.221275, 17.130445)" id="路径">
                                    <path d="M63.2621585,3.53205053 L1.63456694,3.53205053 C0.927727185,3.53205053 0.309242395,2.95809231 0.309242395,2.20753158 C0.309242395,1.45697084 0.8835497,0.883012631 1.63456694,0.883012631 L63.2621585,0.883012631 C63.9689983,0.883012631 64.587483,1.45697084 64.587483,2.20753158 C64.587483,2.95809231 64.0131757,3.53205053 63.2621585,3.53205053 Z"></path>
                                    <path d="M49.1253633,9.84559084 L1.63456694,9.84559084 C0.927727185,9.84559084 0.309242395,9.27163263 0.309242395,8.52107189 C0.309242395,7.77051116 0.8835497,7.19655295 1.63456694,7.19655295 L49.1253633,7.19655295 C49.8322031,7.19655295 50.4506879,7.77051116 50.4506879,8.52107189 C50.4506879,9.27163263 49.8763805,9.84559084 49.1253633,9.84559084 Z"></path>
                                    <path d="M62.9529161,16.77724 L1.32532455,16.77724 C0.61848479,16.77724 0,16.2032818 0,15.452721 C0,14.7021603 0.574307305,14.1282021 1.32532455,14.1282021 L62.9529161,14.1282021 C63.6597559,14.1282021 64.2782407,14.7021603 64.2782407,15.452721 C64.2782407,16.2032818 63.7039333,16.77724 62.9529161,16.77724 Z"></path>
                                    <path d="M48.8161209,23.0907803 L1.32532455,23.0907803 C0.61848479,23.0907803 6.27799821e-14,22.5168221 6.27799821e-14,21.7662614 C6.27799821e-14,21.0157006 0.574307305,20.4417424 1.32532455,20.4417424 L48.8161209,20.4417424 C49.5229607,20.4417424 50.1414455,21.0157006 50.1414455,21.7662614 C50.1414455,22.5168221 49.5671382,23.0907803 48.8161209,23.0907803 Z"></path>
                                </g>
                                <path d="M89.9895369,72.6277889 C89.724472,72.6277889 89.4594071,72.5394877 89.2385197,72.4070358 L69.0935865,58.2788337 L12.7231157,58.2788337 C5.69889556,58.2788337 0,52.5834022 0,45.5634518 L0,12.7153819 C0,5.69543147 5.69889556,0 12.7231157,0 L96.3510947,0 C103.375315,0 109.07421,5.69543147 109.07421,12.7153819 L109.07421,45.5634518 C109.07421,52.5834022 103.375315,58.2788337 96.3510947,58.2788337 L87.3388878,58.2788337 L91.2265065,70.9500649 C91.4032164,71.4798725 91.2265065,72.0538307 90.7405542,72.4070358 C90.5196667,72.5836383 90.2546018,72.6719396 89.9895369,72.6719396 L89.9895369,72.6277889 Z M12.7231157,2.60488726 C7.15675257,2.60488726 2.60647161,7.15240231 2.60647161,12.7153819 L2.60647161,45.5634518 C2.60647161,51.1264314 7.15675257,55.6739464 12.7231157,55.6739464 L69.4911839,55.6739464 C69.7562488,55.6739464 70.0213137,55.7622477 70.2422011,55.8946996 L87.6039527,68.0802739 L84.3348188,57.3516704 C84.2022864,56.9543147 84.2906413,56.5128084 84.5557063,56.203754 C84.8207712,55.8946996 85.174191,55.6739464 85.6159659,55.6739464 L96.3952722,55.6739464 C101.961635,55.6739464 106.511916,51.1264314 106.511916,45.5634518 L106.511916,12.7153819 C106.511916,7.15240231 101.961635,2.60488726 96.3952722,2.60488726 L12.7672932,2.60488726 L12.7231157,2.60488726 Z" id="形状"></path>
                            </g>
                            <g transform="translate(147.287735, 11.824577)">
                                <path d="M184.220112,163.40928 C183.999225,163.40928 183.778338,163.365129 183.55745,163.232677 C180.023251,161.113447 146.580895,151.047103 133.990312,147.33845 C133.32765,147.117697 132.930052,146.411287 133.106762,145.749027 C133.32765,145.086768 134.034489,144.689412 134.697152,144.866015 C136.552606,145.395822 180.332494,158.287807 184.882775,161.025146 C185.501259,161.378351 185.677969,162.173062 185.32455,162.791171 C185.103662,163.188527 184.661887,163.40928 184.220112,163.40928 L184.220112,163.40928 Z" id="路径" fill="#000000"></path>
                                <path d="M217.132339,283.63145 C216.558031,283.63145 216.027902,283.234094 215.895369,282.660136 C211.565976,265.220636 207.501647,249.149806 203.834916,234.933303 C203.658206,234.226893 204.055803,233.564633 204.762643,233.388031 C205.469483,233.211428 206.132145,233.608784 206.308855,234.315194 C209.975586,248.531698 214.039915,264.602527 218.369308,282.086177 C218.546018,282.792588 218.104243,283.454847 217.441581,283.63145 C217.353226,283.63145 217.220694,283.63145 217.132339,283.63145 Z" id="路径" fill="#000000"></path>
                                <path d="M107.174579,357.230552 C62.2902538,357.230552 37.1974424,350.519656 23.9441969,344.780074 C8.65878706,338.15748 5.08041077,331.269981 4.90370083,330.960927 C4.77116838,330.696023 4.72699089,330.386968 4.81534586,330.077914 C4.90370083,329.680558 13.8275528,291.578563 23.414067,253.255815 C42.8963379,175.418252 45.9445844,172.769214 47.093199,171.7979 C51.555125,167.956795 74.8366596,157.13989 89.9453594,150.693898 C90.6080217,150.428994 91.3590389,150.693898 91.6241039,151.356157 C91.8891688,152.018417 91.6241039,152.768978 90.9614416,153.033881 C75.8969192,159.479874 52.836272,170.296778 48.7719434,173.740528 C47.6675063,174.755992 43.2055803,184.645734 25.8438287,254.094677 C16.8757993,289.900839 8.5262546,325.486248 7.42181748,330.122065 C8.39372215,331.579035 12.7231157,337.142015 25.4020539,342.572543 C39.0087192,348.400426 65.2943228,355.199623 113.006007,354.581515 C116.584383,354.537364 120.206937,354.404912 123.741135,354.228309 C124.447975,354.228309 125.06646,354.758117 125.06646,355.464527 C125.06646,356.170937 124.53633,356.789046 123.82949,356.789046 C120.251114,356.965649 116.62856,357.098101 113.006007,357.142251 C111.01802,357.142251 109.030033,357.142251 107.130401,357.142251 L107.174579,357.230552 Z" id="路径" fill="#000000"></path>
                                <path d="M101.033908,122.393343 C84.8649487,122.393343 74.8366596,104.02668 74.8366596,74.4457572 C74.8366596,62.613388 76.515404,41.1120304 87.9131951,30.0302219 C92.7727185,25.3061043 98.9133889,23.0102715 106.070141,23.186874 C120.162759,23.5842297 129.351676,32.1494522 133.416005,48.6617884 C133.592715,49.3681985 133.15094,50.0746086 132.4441,50.2512111 C131.73726,50.4278137 131.03042,49.9863073 130.853711,49.2798972 C127.098624,33.8271762 118.969967,26.1449663 105.981786,25.7917613 C99.5318737,25.6151587 94.0538655,27.6460878 89.724472,31.8845484 C79.0335206,42.2599468 77.4431312,62.966593 77.4431312,74.4016066 C77.4431312,87.8233986 79.6078279,99.2142615 83.716334,107.249676 C87.8690176,115.417543 93.8771556,119.744305 101.078086,119.744305 C116.054253,119.744305 131.339663,100.273877 133.15094,78.9491217 C133.195117,78.2427116 133.85778,77.712904 134.564619,77.7570546 C135.271459,77.8012052 135.801589,78.4634647 135.757411,79.1698748 C134.785507,90.3399846 130.500291,101.112739 123.696958,109.501359 C117.026158,117.669226 108.809146,122.393343 101.033908,122.393343 L101.033908,122.393343 Z" id="路径" fill="#000000"></path>
                                <path d="M136.331719,80.6268457 C134.078667,80.6268457 132.046503,79.9645862 130.765356,79.2581761 C130.146871,78.904971 129.881806,78.1102597 130.235226,77.4921508 C130.588646,76.874042 131.38384,76.6091382 132.002325,76.9623432 C132.26739,77.0947951 138.275528,80.22949 142.384034,75.0197154 C145.034683,71.6642674 146.448363,65.7922335 145.741523,60.8032121 C145.343926,57.9775717 144.372021,55.8583413 142.958341,54.7987262 C140.396047,52.900249 135.536524,55.8141907 131.781438,59.1254881 C131.251308,59.611145 130.411936,59.5669944 129.925983,59.0371868 C129.440031,58.5073792 129.484208,57.6685172 130.014338,57.1828603 C132.79752,54.7104249 139.777562,49.2798972 144.460376,52.6794959 C146.448363,54.1364667 147.817865,56.8738059 148.303817,60.4058564 C149.099012,66.1454385 147.508622,72.6355813 144.372021,76.6091382 C141.986437,79.6555318 138.982368,80.582695 136.287541,80.582695 L136.331719,80.6268457 Z" id="路径" fill="#000000"></path>
                                <path d="M107.793063,163.541732 C105.054059,163.541732 102.315055,163.232677 99.8411161,162.482117 C90.3871343,159.656476 89.2385197,152.371622 89.1943422,152.062568 C89.1059872,151.576911 89.3268746,151.091254 89.724472,150.82635 C89.812827,150.738049 99.6644061,143.541496 100.547956,137.360407 C101.078086,133.740055 101.343151,128.265377 101.254796,121.46618 C101.254796,120.75977 101.829103,120.141661 102.535943,120.141661 L102.535943,120.141661 C103.242782,120.141661 103.81709,120.715619 103.861267,121.422029 C103.905445,128.44198 103.684557,133.916658 103.11025,137.713612 C102.182523,143.983002 94.3631079,150.517295 91.9333463,152.415773 C92.4192986,154.049346 94.274753,158.155355 100.547956,160.009681 C108.720791,162.437966 120.118582,159.744777 125.198992,156.874986 C128.865724,154.799907 131.604728,149.236927 132.664987,146.808642 C129.616741,145.484123 122.371633,141.77547 121.311374,136.8306 C120.427824,132.63629 119.500097,120.80392 118.837435,111.620589 C118.793257,110.914179 119.323387,110.29607 120.030227,110.207769 C120.737066,110.163618 121.355551,110.693426 121.443906,111.399836 C122.327456,124.29182 123.211006,133.121947 123.873668,136.256641 C124.668863,140.141897 132.046503,143.762249 134.829684,144.821864 C135.492346,145.086768 135.845766,145.837328 135.580701,146.499588 C135.448169,146.896944 132.046503,155.947823 126.48014,159.082518 C122.636698,161.245899 115.126526,163.497581 107.748886,163.497581 L107.793063,163.541732 Z" id="路径" fill="#000000"></path>
                                <path d="M144.681263,54.7104249 C145.343926,53.739111 152.500678,42.0391937 150.203449,36.5203647 L147.950397,31.0015358 C147.950397,31.0015358 147.950397,1.86211894 126.833559,0.140244311 C105.716722,-1.58163032 101.033908,13.12053 101.033908,13.12053 C101.033908,13.12053 91.7124588,1.77381768 81.9934121,9.23527441 C72.2743654,16.6967311 76.1619841,24.4672423 76.1619841,24.4672423 C76.1619841,24.4672423 68.0333269,20.2729323 65.1176129,11.1779022 C65.1176129,11.1779022 62.8645611,25.4827068 69.0052315,32.5909585 C75.145902,39.6992102 77.4431312,40.4056203 77.4431312,40.4056203 L77.1338888,55.3285338 L85.262546,42.6573025 C85.262546,42.6573025 87.8690176,44.5999303 95.3350126,44.9089847 C102.801008,45.2180391 108.985855,36.4762141 113.536136,37.447528 C118.086417,38.4188419 121.355551,44.2467252 121.974036,46.2335037 C122.592521,48.2202821 126.789382,53.3417553 126.789382,53.3417553 L130.102693,69.324284 L133.990312,68.3529701 L136.110831,54.4013705 C139.64503,51.9730858 142.560744,51.8406339 144.725441,54.7104249 L144.681263,54.7104249 Z" id="路径" fill="#000000"></path>
                                <ellipse id="椭圆形" fill="#000000" cx="110.929665" cy="60.8473627" rx="2.73900407" ry="7.10825168"></ellipse>
                                <ellipse id="椭圆形" fill="#000000" cx="89.9453594" cy="62.2160323" rx="2.73900407" ry="7.10825168"></ellipse>
                                <path d="M98.6925015,84.3354987 C97.102112,84.3354987 95.467545,84.1147456 94.3631079,83.3200342 C93.5679132,82.746076 93.1261383,81.907214 93.1261383,80.9359001 C93.1261383,77.712904 97.4113544,70.6046523 97.9414842,69.8099409 C98.3390816,69.1918321 99.1342763,69.0152296 99.7527611,69.3684346 C100.371246,69.7657903 100.547956,70.5605017 100.194536,71.1786105 C98.471614,73.9601003 95.7767874,79.0815736 95.7767874,80.9359001 C95.7767874,81.0242013 95.7767874,81.1125026 95.9534974,81.2008039 C97.1462895,82.0838165 101.033908,81.6864608 102.005813,81.3332558 C102.668475,81.1125026 103.419492,81.4657077 103.64038,82.1721178 C103.861267,82.8343772 103.507847,83.584938 102.801008,83.8056911 C102.2267,83.9822937 100.503778,84.3354987 98.6925015,84.3354987 L98.6925015,84.3354987 Z" id="路径" fill="#000000"></path>
                                <path d="M107.837241,100.53878 C105.098237,100.53878 102.447588,99.1701109 100.768843,97.5365375 C99.2226313,96.0354161 98.559969,94.4018427 99.0459213,93.0331731 L99.0459213,93.0331731 C99.6644061,91.134696 108.499903,86.3222771 112.343344,85.7924696 C113.889556,85.5717164 114.993993,85.9249214 115.612478,86.8520847 C116.672738,88.4415074 116.761093,91.0905453 115.877543,93.8278845 C114.861461,96.9184287 112.873474,99.2142615 110.399535,100.097274 C109.60434,100.406329 108.764968,100.53878 107.925596,100.53878 L107.837241,100.53878 Z M101.51986,93.9603364 C101.51986,94.2252402 101.784925,94.843349 102.624298,95.6380604 C104.303042,97.2716338 107.174579,98.4637008 109.471808,97.6248388 C111.150552,97.00673 112.608409,95.2848553 113.359426,92.9890225 C114.022089,90.9580934 113.933734,89.1479175 113.447781,88.3532062 C111.72486,87.6909467 103.021895,92.2384618 101.475683,93.9161858 L101.51986,93.9603364 Z" id="形状" fill="#000000"></path>
                                <path d="M244.875799,357.230552 L230.076342,319.349311 L225.172641,326.98737 L219.5621,342.969898 L202.377059,350.033999 L174.987018,344.029514 C177.195892,342.616693 185.103662,337.583521 185.677969,336.170701 C186.384809,334.537128 190.625848,325.839453 190.360783,325.133043 C190.139895,324.426633 177.902732,326.766617 175.561325,326.545863 C173.219919,326.32511 171.806239,322.307403 172.027127,320.806281 C172.248014,319.30516 188.947103,310.784088 190.139895,310.298431 C191.332687,309.812774 204.011626,309.812774 204.011626,309.812774 C204.011626,309.812774 212.096105,297.450597 218.722728,283.498998 C218.413486,282.26278 218.104243,280.982412 217.795001,279.702043 C207.722534,278.554127 189.167991,274.624721 179.669831,261.247079 C166.239876,242.306458 157.581089,209.988196 158.376284,182.394051 C158.729704,170.031875 158.773881,159.700627 158.685526,152.106718 C154.75373,150.8705 150.866111,149.722584 147.37609,148.662969 C145.564813,159.082518 142.958341,173.299021 140.749467,182.923859 C137.215268,198.464881 134.608797,205.087476 134.608797,205.087476 C118.881612,214.888916 92.2867661,217.184749 71.7884131,209.105184 C71.7884131,209.105184 67.7240845,197.537718 66.3987599,183.321215 C65.6919202,176.124662 65.1176129,168.839808 64.6316605,162.305514 C60.302267,164.424744 56.3262934,166.411523 53.1896919,168.133397 C50.8041077,187.603826 46.4747142,220.496046 43.2055803,229.767679 C39.8480915,239.260065 29.8198024,246.721522 24.2092618,250.341873 C23.9441969,251.357338 23.7233094,252.328652 23.4582445,253.344116 C13.8717303,291.622714 4.94787832,329.76886 4.85952335,330.166215 L0,349.636644 L48.5068785,352.241531 C62.6878512,355.155473 81.7725247,357.318854 107.218756,357.318854 C109.162565,357.318854 111.106375,357.318854 113.094362,357.318854 C125.640767,357.142251 137.215268,356.215088 147.773687,354.758117 L141.898082,358.113565 L244.875799,357.363004 L244.875799,357.230552 Z" id="路径" fill="#733DFF"></path>
                                <path d="M129.712265,230.175423 L137.712265,237.913184 L134.244746,237.913184 L134.244746,247.175423 L129.712265,247.175423 L129.712265,230.175423 Z M146.712265,230.175423 L146.712265,247.175423 L138.712265,239.437663 L142.179784,239.437663 L142.179784,230.175423 L146.712265,230.175423 Z" id="形状结合" fill="#B79BFF" transform="translate(138.212265, 238.675423) rotate(-6.000000) translate(-138.212265, -238.675423) "></path>
                            </g>
                            <rect id="矩形" fill="#000000" x="0" y="345.655295" width="294.487115" height="28.3447055"></rect>
                            <g transform="translate(315.446961, 173.170984)" fill="#000000">
                                <path d="M34.0411228,189.967961 C32.9808631,189.967961 29.9767942,189.526455 19.4625527,187.274773 C12.7033975,185.817802 6.0325973,184.27253 5.98841981,184.27253 C5.50246748,184.140078 5.10487011,183.742722 5.01651514,183.212914 C4.92816017,182.683107 5.1490476,182.19745 5.59082245,181.932546 C10.3178133,178.974454 15.7958215,175.22165 16.4143063,174.250336 C16.5910162,173.852981 16.9444361,173.058269 17.4303884,171.998654 C18.2255832,170.32093 19.8159726,166.877181 20.5669899,164.978704 C19.1533103,165.111155 16.9002586,165.42021 15.1331592,165.685114 C11.0246531,166.259072 8.46235897,166.612277 7.31374436,166.479825 C6.20930724,166.391524 5.19322508,165.729264 4.35385287,164.669649 C3.20523826,163.168528 2.41004353,160.740243 2.63093095,159.283272 C2.76346341,158.532711 2.89599586,157.693849 11.9965578,152.704828 C16.3701288,150.320694 20.8762323,148.069012 21.5388945,147.759957 C22.6875091,147.2743 30.2860366,147.185999 35.1897374,147.185999 C38.4146938,142.108676 61.4311635,105.28705 57.4551898,90.5407387 C54.3185884,78.884972 43.715992,75.7502772 34.3503652,73.012938 C31.1254088,72.0416241 28.0329848,71.1586115 25.4706907,69.9665444 C14.7355618,64.9775231 6.73943706,59.9443511 1.43813886,40.7388263 C-2.44947982,26.6106242 2.14497862,12.5707234 8.06476161,5.46247172 C11.2455405,1.66551741 14.8680943,-0.277110382 18.2697606,0.0319440385 C31.788071,1.26816172 48.7080478,8.99452225 62.4030681,20.2529333 C74.1542791,29.9219216 89.174624,46.655011 93.9899699,71.2910634 C96.640619,84.9777592 91.3834983,105.154598 78.3953177,131.291772 C69.2947558,149.525983 59.3989992,164.448896 58.2503845,166.170771 C57.1901249,169.791122 53.8768135,180.78463 52.4189565,182.462354 C50.6076796,184.581584 34.8363175,189.835509 34.6596076,189.87966 C34.5270751,189.87966 34.3945427,189.967961 34.0411228,189.967961 L34.0411228,189.967961 Z M9.52261861,182.462354 C20.6553448,184.97894 32.1856684,187.407224 33.9085903,187.407224 L33.9085903,187.407224 C39.165711,185.641199 49.3265326,181.888395 50.3867922,180.78463 C51.181987,179.857466 53.7442811,172.131106 55.7322679,165.287758 C55.7322679,165.155306 55.8206229,165.022854 55.9089778,164.934553 C56.3065752,164.316444 97.4799912,103.256121 91.3834983,71.820871 C86.7448624,47.9353793 72.1221148,31.6879469 60.6801462,22.2838623 C47.3827232,11.3345057 30.9928763,3.82889835 17.9605182,2.6368313 C15.3982241,2.41607814 12.5708651,4.00550088 9.92021598,7.14019572 C4.22132041,13.939393 0.289524251,27.4494862 3.77954556,40.0765669 C8.77160137,58.2224764 16.0167089,62.7699915 26.4425954,67.626561 C28.8281795,68.7303268 31.8322485,69.6133394 34.96885,70.5405027 C44.4670092,73.3219924 56.3065752,76.8098923 59.840774,89.8784793 C64.391055,106.744021 38.0170964,147.450903 36.8684818,149.172777 C36.6475944,149.525983 36.249997,149.746736 35.8082222,149.746736 C29.9326167,149.746736 23.3501714,149.923338 22.3782667,150.144091 C20.5228124,150.894652 6.87196951,158.047054 5.06069263,159.85723 C5.06069263,160.56364 5.45828999,162.020611 6.25348472,163.036076 C6.51854963,163.389281 6.96032448,163.830787 7.44627682,163.874938 C8.374004,163.963239 11.8640253,163.477582 14.6472069,163.080226 C21.8039594,162.064762 22.8642191,161.93231 23.3501714,163.30098 C23.6152363,164.05154 23.4827039,164.75795 19.6392627,173.014119 C19.1974878,173.985432 18.7998905,174.868445 18.6231805,175.265801 C18.0046957,176.678621 13.3660598,179.901617 9.43426364,182.418203 L9.52261861,182.462354 Z" id="形状"></path>
                                <path d="M49.6799525,78.4434657 C49.2381776,78.4434657 48.7964028,78.2227125 48.5755153,77.7812062 C48.3104504,77.3396999 42.6999098,66.787699 51.4028744,51.9089361 C58.382917,39.944115 68.2344962,36.7652695 71.0618552,36.10301 C73.8892142,35.3965999 76.2306209,35.4407506 77.4675905,36.2354619 C78.0860753,36.6328176 78.2627852,37.427529 77.8651879,38.0014872 C77.4675905,38.619596 76.6723958,38.7961986 76.0980885,38.3988429 C75.7888461,38.1780897 74.2868116,37.9573366 71.68034,38.619596 C69.0738684,39.2377049 60.1058389,42.1516466 53.6117486,53.2334551 C45.6156238,66.8318496 50.7843896,76.4566873 50.8285671,76.5449885 C51.181987,77.1630974 50.9610995,77.9578088 50.3426147,78.3110138 C50.1659048,78.3993151 49.9450174,78.4876163 49.7241299,78.4876163 L49.6799525,78.4434657 Z" id="路径"></path>
                            </g>
                            <path d="M63.0412711,145.078975 C63.0412711,145.078975 62.7320287,145.078975 62.5994962,145.078975 C61.2741717,144.946523 60.213912,144.328415 59.5512498,143.268799 C58.5351676,141.679377 58.6235226,139.560146 58.9769425,138.588832 C59.3303623,137.573368 60.2580895,137.04356 61.7159465,136.204698 C62.9529161,135.498288 64.675838,134.526974 66.6638248,132.893401 C70.3305561,129.891158 72.8044953,123.00366 72.8044953,122.959509 C73.0253827,122.297249 73.7763999,121.944044 74.4390622,122.164798 C75.1017245,122.385551 75.4551444,123.136111 75.2342569,123.798371 C75.145902,124.107425 72.5394303,131.39228 68.2983918,134.880179 C66.1778725,136.646205 64.3224181,137.661669 62.9970936,138.41223 C62.3344313,138.809586 61.5834141,139.206941 61.4067041,139.427694 C61.2741717,139.913351 61.2741717,141.105418 61.7159465,141.811829 C61.9810114,142.209184 62.3344313,142.429937 62.8645611,142.474088 C64.9409029,142.694841 69.7562488,139.648448 72.0976555,135.895644 C72.4952529,135.277535 73.2904476,135.100933 73.8647549,135.498288 C74.4832397,135.895644 74.6599496,136.690355 74.2623523,137.264314 C71.8325906,141.061268 66.6638248,145.034825 63.0412711,145.034825 L63.0412711,145.078975 Z" id="路径" fill="#000000"></path>
                            <path d="M151.970548,200.311415 C149.761674,200.311415 147.420267,200.178964 144.990506,199.825758 C122.062391,196.779365 105.142414,145.255578 104.391397,143.048046 C104.34722,142.827293 104.303042,142.60654 104.391397,142.429937 C104.391397,142.253335 107.925596,123.445166 105.186592,116.999174 C102.801008,111.347893 91.1381515,105.56416 83.8488665,107.904144 C76.7362914,110.155826 72.8928502,115.718805 68.9610541,123.886672 C66.6638248,128.743242 61.4508816,132.760949 57.6957954,135.719041 C56.1054059,136.955259 54.1174191,138.500531 53.8081767,139.11864 C53.8081767,141.855979 54.5150165,142.341636 55.2660337,142.474088 C56.7680682,142.738992 58.6677001,142.076732 59.2861848,141.811829 C59.9488471,141.546925 60.6998644,141.811829 60.9649293,142.474088 C61.2299942,143.136348 60.9649293,143.886908 60.302267,144.151812 C60.1697345,144.195963 57.386553,145.38803 54.8684363,144.946523 C51.2458826,144.328415 51.2458826,140.266556 51.2458826,138.942038 C51.2458826,137.485067 52.7479171,136.293 56.1054059,133.643962 C59.6837822,130.862472 64.587483,127.021367 66.6196474,122.738756 C70.0654912,115.498052 74.1739973,108.213198 83.0536718,105.387558 C91.8008138,102.606068 104.700639,109.184512 107.572176,115.939558 C110.399535,122.650454 107.483821,139.82505 106.997869,142.518239 C108.455726,146.80085 124.933928,194.527683 145.388103,197.220871 C160.850223,199.295951 171.717884,193.953724 182.232126,188.832251 C186.561519,186.713021 190.670025,184.726242 194.911064,183.357573 C195.573726,183.13682 196.324743,183.490025 196.545631,184.196435 C196.766518,184.858694 196.413098,185.609255 195.706258,185.830008 C191.64193,187.154527 187.621779,189.097155 183.38074,191.172235 C174.589421,195.498997 164.782019,200.267265 152.014726,200.267265 L151.970548,200.311415 Z" id="路径" fill="#000000"></path>
                            <path d="M157.713621,255.455554 C151.440419,255.455554 144.857973,254.749144 138.76148,253.380475 C127.363689,250.775587 112.034102,244.63865 103.772912,230.068941 C95.6884325,215.852438 93.5237357,194.130327 91.5799264,174.968953 C89.8570045,157.706056 88.2224375,141.370322 82.3910095,137.74997 C81.7725247,137.396765 81.5958148,136.602054 81.9934121,135.983945 C82.346832,135.365836 83.1420267,135.189234 83.7605115,135.58659 C90.6521992,139.869201 92.1984112,155.233621 94.1422205,174.7482 C96.0418524,193.64467 98.2065491,215.057726 106.025964,228.832723 C119.809339,253.115571 157.669444,255.941211 175.031196,250.731437 C175.693858,250.510684 176.444875,250.908039 176.621585,251.570299 C176.842472,252.232558 176.444875,252.983119 175.782213,253.159721 C170.701802,254.704994 164.384422,255.455554 157.757799,255.455554 L157.713621,255.455554 Z" id="路径" fill="#000000"></path>
                            <path d="M77.9290835,140.884665 C76.2945166,140.884665 74.3948847,140.443159 73.2020926,139.515996 C72.1860105,138.721284 71.7000581,137.661669 71.8325906,136.469602 C72.053478,134.615276 75.057547,131.43643 79.9170703,126.359108 C82.1259446,124.063275 84.8649487,121.237634 85.2183685,120.442923 C85.4834334,119.780663 86.2344507,119.471609 86.897113,119.780663 C87.5597752,120.045567 87.8690176,120.796128 87.5597752,121.458387 C87.0738229,122.650454 85.1300136,124.681384 81.7725247,128.125133 C79.0776981,130.906623 74.6157721,135.542439 74.3507072,136.778657 C74.3507072,136.911108 74.3065297,137.131862 74.7041271,137.485067 C75.8527417,138.368079 78.2825034,138.456381 79.0776981,138.147326 C79.7403604,137.882422 81.7283472,136.072246 83.1862042,134.747728 C85.262546,132.84925 86.5878706,131.657183 87.5155978,131.215677 C88.7967448,130.597568 89.724472,130.818321 90.9172641,131.083225 C91.9775237,131.303978 93.3912033,131.613033 95.9534974,131.657183 C100.768843,131.657183 102.40341,130.774171 102.447588,130.774171 C103.021895,130.376815 103.81709,130.553418 104.214687,131.171526 C104.612284,131.789635 104.435575,132.584347 103.81709,132.937552 C103.46367,133.158305 101.51986,134.262071 95.9534974,134.21792 C93.1261383,134.21792 91.4915714,133.820564 90.3871343,133.599811 C89.3268746,133.379058 89.1059872,133.334907 88.6642124,133.55566 C88.0015501,133.864715 86.3228057,135.409987 84.9533036,136.646205 C82.6118969,138.809586 81.1098624,140.134105 80.0496028,140.53146 C79.4752955,140.752213 78.7242782,140.884665 77.884906,140.884665 L77.9290835,140.884665 Z" id="路径" fill="#000000"></path>
                            <path d="M155.902345,255.411404 C155.372215,255.411404 154.842085,255.058199 154.665375,254.528391 C154.444488,253.866132 149.540787,238.36926 151.617128,224.285208 C153.69347,210.157006 163.412517,197.088419 163.854292,196.514461 C164.296067,195.940503 165.091261,195.852202 165.665569,196.249557 C166.239876,196.691064 166.328231,197.485775 165.930634,198.059733 C165.842279,198.192185 156.167409,211.172471 154.2236,224.638413 C152.235613,238.148507 157.139314,253.557077 157.183492,253.73368 C157.404379,254.395939 157.006782,255.1465 156.344119,255.367253 C156.211587,255.367253 156.079054,255.411404 155.946522,255.411404 L155.902345,255.411404 Z" id="路径" fill="#000000"></path>
                            <path d="M122.769231,348.171881 L38.4785894,348.171881 C36.0046503,348.171881 33.972486,346.140951 33.972486,343.668516 L33.972486,335.014992 C33.972486,332.542557 36.0046503,330.511628 38.4785894,330.511628 L122.769231,330.511628 C125.24317,330.511628 127.275334,332.542557 127.275334,335.014992 L127.275334,343.668516 C127.275334,346.140951 125.24317,348.171881 122.769231,348.171881 Z M38.4785894,333.072365 C37.4183298,333.072365 36.5347801,333.955377 36.5347801,335.014992 L36.5347801,343.668516 C36.5347801,344.728131 37.4183298,345.611144 38.4785894,345.611144 L122.769231,345.611144 C123.82949,345.611144 124.71304,344.728131 124.71304,343.668516 L124.71304,335.014992 C124.71304,333.955377 123.82949,333.072365 122.769231,333.072365 L38.4785894,333.072365 L38.4785894,333.072365 Z" id="形状" fill="#000000"></path>
                            <rect id="矩形" fill="#000000" x="127.561054" y="337.216783" width="41.8701299" height="3.21428571"></rect>
                            <path d="M142.256602,343.002497 C140.358006,343.002497 138.833781,340.983805 138.833781,338.502497 L138.833781,338.502497 C138.833781,336.000161 140.358006,334.002497 142.256602,334.002497 L186.138233,334.002497 C188.036829,334.002497 189.561054,336.021189 189.561054,338.502497 L189.561054,338.502497 C189.561054,341.004833 188.036829,343.002497 186.138233,343.002497 L142.256602,343.002497 Z" id="路径" fill="#000000"></path>
                            <ellipse id="椭圆形" fill="#000000" cx="62.5994962" cy="167.7724" rx="2.60647161" ry="2.60488726"></ellipse>
                            <ellipse id="椭圆形" fill="#000000" cx="37.4183298" cy="257.398182" rx="2.60647161" ry="2.60488726"></ellipse>
                            <ellipse id="椭圆形" fill="#000000" cx="96.9695795" cy="256.294416" rx="2.60647161" ry="2.60488726"></ellipse>
                            <ellipse id="椭圆形" fill="#000000" cx="49.8763805" cy="192.761657" rx="2.60647161" ry="2.60488726"></ellipse>
                            <ellipse id="椭圆形" fill="#000000" cx="66.9730672" cy="193.335616" rx="2.60647161" ry="2.60488726"></ellipse>
                            <ellipse id="椭圆形" fill="#000000" cx="38.6994768" cy="226.801794" rx="2.60647161" ry="2.60488726"></ellipse>
                            <ellipse id="椭圆形" fill="#000000" cx="78.3266809" cy="232.585527" rx="2.60647161" ry="2.60488726"></ellipse>
                            <ellipse id="椭圆形" fill="#000000" cx="61.7159465" cy="270.952426" rx="2.60647161" ry="2.60488726"></ellipse>
                            <ellipse id="椭圆形" fill="#000000" cx="68.1216818" cy="250.069177" rx="2.20887425" ry="2.20753158"></ellipse>
                            <ellipse id="椭圆形" fill="#000000" cx="60.390622" cy="223.446346" rx="2.20887425" ry="2.20753158"></ellipse>
                            <ellipse id="椭圆形" fill="#000000" cx="77.5314861" cy="176.911581" rx="2.20887425" ry="2.20753158"></ellipse>
                            <ellipse id="椭圆形" fill="#000000" cx="82.346832" cy="204.947232" rx="2.60647161" ry="2.60488726"></ellipse>
                        </g>
                    </g>
                    <text id="RGB++" transform="translate(39.313023, 240.354619) rotate(-23.000000) translate(-39.313023, -240.354619) " font-family="AvenirNext-Bold, Avenir Next" font-size="18" font-weight="bold" line-spacing="20" fill="#000000">
                        <tspan x="8.31302305" y="248.354619">RGB++</tspan>
                    </text>
                    <text id="SPORE" transform="translate(64.542437, 285.225025) rotate(21.000000) translate(-64.542437, -285.225025) " font-family="AvenirNext-Bold, Avenir Next" font-size="14" font-weight="bold" line-spacing="20" fill="#000000">
                        <tspan x="41.0424372" y="289.225025">SPORE</tspan>
                    </text>
                    <text id="OMIGA" transform="translate(54.000000, 181.000000) rotate(8.000000) translate(-54.000000, -181.000000) " font-family="AvenirNext-Bold, Avenir Next" font-size="12" font-weight="bold" line-spacing="20" fill="#000000">
                        <tspan x="32" y="183">OMIGA</tspan>
                    </text>
                </g>
            </g>
        </g>
    </g>
</svg>