<?xml version="1.0" encoding="UTF-8"?>
<svg width="36px" height="36px" viewBox="0 0 36 36" version="1.1" xmlns="http://www.w3.org/2000/svg" xmlns:xlink="http://www.w3.org/1999/xlink">
    <title>icon_pending@1x</title>
    <g id="Balance" stroke="none" stroke-width="1" fill="none" fill-rule="evenodd">
        <g id="Balance_index" transform="translate(-710.000000, -568.000000)">
            <g id="Inscribe" transform="translate(660.000000, 171.000000)">
                <g id="icon_pending" transform="translate(50.000000, 397.000000)">
                    <circle id="icon_send" fill="#50F412" cx="18" cy="18" r="18"></circle>
                    <path d="M18,28 C15.2083333,28 12.84375,27.03125 10.90625,25.09375 C8.96875,23.15625 8,20.7916667 8,18 C8,15.2083333 8.96875,12.84375 10.90625,10.90625 C12.84375,8.96875 15.2083333,8 18,8 C19.4375,8 20.8125,8.296875 22.125,8.890625 C23.4375,9.484375 24.5625,10.3333333 25.5,11.4375 L25.5,8 L28,8 L28,16.75 L19.25,16.75 L19.25,14.25 L24.5,14.25 C23.8333333,13.0833333 22.921875,12.1666667 21.765625,11.5 C20.609375,10.8333333 19.3541667,10.5 18,10.5 C15.9166667,10.5 14.1458333,11.2291667 12.6875,12.6875 C11.2291667,14.1458333 10.5,15.9166667 10.5,18 C10.5,20.0833333 11.2291667,21.8541667 12.6875,23.3125 C14.1458333,24.7708333 15.9166667,25.5 18,25.5 C19.6041667,25.5 21.0520833,25.0416667 22.34375,24.125 C23.6354167,23.2083333 24.5416667,22 25.0625,20.5 L27.6875,20.5 C27.1041667,22.7083333 25.9166667,24.5104167 24.125,25.90625 C22.3333333,27.3020833 20.2916667,28 18,28 Z" id="路径" fill="#000000" fill-rule="nonzero"></path>
                </g>
            </g>
        </g>
    </g>
</svg>