<?xml version="1.0" encoding="UTF-8"?>
<svg width="14px" height="16px" viewBox="0 0 14 16" version="1.1" xmlns="http://www.w3.org/2000/svg" xmlns:xlink="http://www.w3.org/1999/xlink">
    <g id="Home" stroke="none" stroke-width="1" fill="none" fill-rule="evenodd">
        <g id="Home_01" transform="translate(-1836.000000, -159.000000)" fill="#BBBBBB" fill-rule="nonzero">
            <g id="编组-4" transform="translate(1630.000000, 159.000000)">
                <path d="M218.526316,13.0909091 L210.421053,13.0909091 C210.015789,13.0909091 209.66886,12.9484848 209.380263,12.6636364 C209.091667,12.3787879 208.947368,12.0363636 208.947368,11.6363636 L208.947368,1.45454545 C208.947368,1.05454545 209.091667,0.712121212 209.380263,0.427272727 C209.66886,0.142424242 210.015789,0 210.421053,0 L215.578947,0 L220,4.36363636 L220,11.6363636 C220,12.0363636 219.855702,12.3787879 219.567105,12.6636364 C219.278509,12.9484848 218.931579,13.0909091 218.526316,13.0909091 Z M214.842105,5.09090909 L214.842105,1.45454545 L210.421053,1.45454545 L210.421053,11.6363636 L218.526316,11.6363636 L218.526316,5.09090909 L214.842105,5.09090909 Z M207.473684,16 C207.068421,16 206.721491,15.8575758 206.432895,15.5727273 C206.144298,15.2878788 206,14.9454545 206,14.5454545 L206,4.36363636 L207.473684,4.36363636 L207.473684,14.5454545 L215.578947,14.5454545 L215.578947,16 L207.473684,16 Z M210.4625,1.45454545 L210.4625,5.09090909 L210.4625,1.45454545 L210.4625,11.6363636 L210.4625,1.45454545 Z" id="icon_copy"></path>
            </g>
        </g>
    </g>
</svg>