<svg xmlns="http://www.w3.org/2000/svg" width="25" height="24" viewBox="0 0 25 24" fill="none" style="margin-bottom: 4px;"><g clip-path="url(#clip0_11123_27895)"><path d="M23.932 10.524C21.287 7.61401 16.9 4.53801 12.5 4.60001C8.10002 4.53701 3.71302 7.61501 1.06802 10.524C0.705452 10.9294 0.505005 11.4542 0.505005 11.998C0.505005 12.5419 0.705452 13.0666 1.06802 13.472C3.68202 16.351 8.00702 19.4 12.339 19.4H12.647C16.994 19.4 21.318 16.351 23.935 13.471C24.2971 13.0654 24.497 12.5406 24.4964 11.9969C24.4959 11.4533 24.2949 10.9288 23.932 10.524ZM7.90002 12C7.90002 11.0902 8.16981 10.2009 8.67526 9.44439C9.18072 8.68792 9.89914 8.09833 10.7397 7.75017C11.5802 7.402 12.5051 7.31091 13.3974 7.4884C14.2898 7.66589 15.1094 8.104 15.7527 8.74732C16.396 9.39064 16.8341 10.2103 17.0116 11.1026C17.1891 11.9949 17.098 12.9198 16.7499 13.7604C16.4017 14.6009 15.8121 15.3193 15.0556 15.8248C14.2992 16.3302 13.4098 16.6 12.5 16.6C11.28 16.6 10.11 16.1154 9.24733 15.2527C8.38466 14.39 7.90002 13.22 7.90002 12Z" fill="white"></path><path d="M12.5 14C13.6046 14 14.5 13.1046 14.5 12C14.5 10.8954 13.6046 10 12.5 10C11.3955 10 10.5 10.8954 10.5 12C10.5 13.1046 11.3955 14 12.5 14Z" fill="white"></path></g><defs><clipPath id="clip0_11123_27895"><rect width="24" height="24" fill="white" transform="translate(0.5)"></rect></clipPath></defs></svg>