<?xml version="1.0" encoding="UTF-8"?>
<svg width="20px" height="20px" viewBox="0 0 20 20" version="1.1" xmlns="http://www.w3.org/2000/svg" xmlns:xlink="http://www.w3.org/1999/xlink">
    <g id="Inscriptions" stroke="none" stroke-width="1" fill="none" fill-rule="evenodd">
        <g id="Inscriptions_03" transform="translate(-719.000000, -467.000000)" fill="#733DFF" fill-rule="nonzero">
            <g id="CKBS" transform="translate(360.000000, 321.000000)">
                <g id="Inscriptions" transform="translate(40.000000, 130.000000)">
                    <path d="M328,31 L330,31 L330,25 L328,25 L328,31 Z M329,23 C329.283333,23 329.520833,22.9041667 329.7125,22.7125 C329.904167,22.5208333 330,22.2833333 330,22 C330,21.7166667 329.904167,21.4791667 329.7125,21.2875 C329.520833,21.0958333 329.283333,21 329,21 C328.716667,21 328.479167,21.0958333 328.2875,21.2875 C328.095833,21.4791667 328,21.7166667 328,22 C328,22.2833333 328.095833,22.5208333 328.2875,22.7125 C328.479167,22.9041667 328.716667,23 329,23 Z M329,36 C327.616667,36 326.316667,35.7375 325.1,35.2125 C323.883333,34.6875 322.825,33.975 321.925,33.075 C321.025,32.175 320.3125,31.1166667 319.7875,29.9 C319.2625,28.6833333 319,27.3833333 319,26 C319,24.6166667 319.2625,23.3166667 319.7875,22.1 C320.3125,20.8833333 321.025,19.825 321.925,18.925 C322.825,18.025 323.883333,17.3125 325.1,16.7875 C326.316667,16.2625 327.616667,16 329,16 C330.383333,16 331.683333,16.2625 332.9,16.7875 C334.116667,17.3125 335.175,18.025 336.075,18.925 C336.975,19.825 337.6875,20.8833333 338.2125,22.1 C338.7375,23.3166667 339,24.6166667 339,26 C339,27.3833333 338.7375,28.6833333 338.2125,29.9 C337.6875,31.1166667 336.975,32.175 336.075,33.075 C335.175,33.975 334.116667,34.6875 332.9,35.2125 C331.683333,35.7375 330.383333,36 329,36 Z M329,34 C331.233333,34 333.125,33.225 334.675,31.675 C336.225,30.125 337,28.2333333 337,26 C337,23.7666667 336.225,21.875 334.675,20.325 C333.125,18.775 331.233333,18 329,18 C326.766667,18 324.875,18.775 323.325,20.325 C321.775,21.875 321,23.7666667 321,26 C321,28.2333333 321.775,30.125 323.325,31.675 C324.875,33.225 326.766667,34 329,34 Z" id="icon_info"></path>
                </g>
            </g>
        </g>
    </g>
</svg>