<?xml version="1.0" encoding="UTF-8"?>
<svg width="60px" height="60px" viewBox="0 0 60 60" version="1.1" xmlns="http://www.w3.org/2000/svg" xmlns:xlink="http://www.w3.org/1999/xlink">
    <g id="My-Inscriptions" stroke="none" stroke-width="1" fill="none" fill-rule="evenodd">
        <g id="Inscriptions_04" transform="translate(-928.000000, -893.000000)" fill="#50F412" fill-rule="nonzero">
            <g id="编组-11" transform="translate(683.000000, 843.000000)">
                <path d="M275,50 C258.456957,50 245,63.4569565 245,80 C245,96.5430435 258.456957,110 275,110 C291.543043,110 305,96.5430435 305,80 C305,63.4569565 291.543043,50 275,50 Z M271.315789,65.2668384 C271.315789,65.0018403 271.55348,64.7368421 272.266553,64.7368421 L277.733447,64.7368421 C278.208829,64.7368421 278.684211,64.8693412 278.684211,65.2668384 L278.684211,83.1542142 C278.684211,83.4192124 278.44652,83.6842105 277.733447,83.6842105 L272.266553,83.6842105 C271.791171,83.6842105 271.315789,83.5517114 271.315789,83.1542142 L271.315789,65.2668384 Z M278.684211,94.3962848 C278.684211,94.8297214 278.453947,95.2631579 277.763158,95.2631579 L272.236842,95.2631579 C271.776316,95.2631579 271.315789,95.0464396 271.315789,94.3962848 L271.315789,88.7616099 C271.315789,88.3281734 271.546053,87.8947368 272.236842,87.8947368 L277.763158,87.8947368 C278.223684,87.8947368 278.684211,88.1114551 278.684211,88.7616099 L278.684211,94.3962848 Z" id="icon_warn_02"></path>
            </g>
        </g>
    </g>
</svg>