<?xml version="1.0" encoding="UTF-8"?>
<svg width="140px" height="220px" viewBox="0 0 140 220" version="1.1" xmlns="http://www.w3.org/2000/svg" xmlns:xlink="http://www.w3.org/1999/xlink">
    <title>logo_white@1x</title>
    <g id="logo" stroke="none" stroke-width="1" fill="none" fill-rule="evenodd">
        <g id="画板" transform="translate(-821.000000, -773.000000)" fill="#FFFFFF" fill-rule="nonzero">
            <g id="logo_media" transform="translate(741.000000, 743.000000)">
                <g id="logo_white" transform="translate(80.000000, 30.000000)">
                    <g id="编组" transform="translate(3.000000, 0.000000)">
                        <path d="M42.4586535,72.3079569 C26.6869997,72.3079569 0,70.3525631 0,63.0254553 C0,55.6983474 26.6869997,53.7429536 42.4586535,53.7429536 C58.2303072,53.7429536 84.94,55.6983474 84.94,63.0254553 C84.94,70.3525631 58.2530003,72.3079569 42.4586535,72.3079569 Z M42.4586535,56.9120401 C17.5644029,56.9120401 3.65357734,60.8902551 3.17702378,63.047931 C3.63088432,65.1606554 17.5190168,69.1613462 42.4586535,69.1613462 C67.3982901,69.1613462 81.2864227,65.1606554 81.7402832,63.0254553 C81.2637296,60.8902551 67.3755971,56.9120401 42.4586535,56.9120401 Z" id="形状"></path>
                        <path d="M44.377424,0 C44.377424,0 34.2784119,6.83870969 38.1766762,21.7926882 C42.0749404,36.7466667 47.9793289,38.0688173 44.377424,49.4438711 C44.377424,49.4438711 51.1708903,43.9273119 47.2954229,32.5294624 C43.3971587,21.1544086 39.8408474,12.3552688 44.377424,0" id="路径"></path>
                        <path d="M29.0807263,6.17763442 C29.0807263,6.17763442 20.235542,12.1501076 23.6322751,25.2576345 C27.0518051,38.3423657 32.2038971,39.4821506 29.0807263,49.4438711 C29.0807263,49.4438711 35.0307085,44.6111829 31.6111785,34.6494624 C28.1916485,24.687742 25.1140715,17.0055914 29.0807263,6.17763442" id="路径"></path>
                        <path d="M59.9704809,6.17763442 C59.9704809,6.17763442 51.1252965,12.1501076 54.5448266,25.2576345 C57.9415597,38.3423657 63.1392454,39.4821506 59.9704809,49.4438711 C59.9704809,49.4438711 65.94326,44.6111829 62.52373,34.6494624 C59.1041999,24.687742 56.0266229,17.0055914 59.9704809,6.17763442" id="路径"></path>
                        <path d="M42.4359605,106 C24.6673203,106 10.5295645,103.318388 5.7186428,100.682616 C0.249623297,97.6801281 9.73443548e-15,95.4569117 9.73443548e-15,89.4519353 L9.73443548e-15,63.3692516 L3.17702378,63.3692516 L3.17702378,89.4519353 C3.17702378,94.769319 3.17702378,95.5944302 7.26176863,97.8405664 C11.5961368,100.224221 25.4161902,102.768314 42.4586535,102.768314 C59.5011168,102.768314 73.3438632,100.224221 77.6782314,97.8405664 C81.7629762,95.5944302 81.7629762,94.769319 81.7629762,89.4519353 L81.7629762,63.3692516 L84.94,63.3692516 L84.94,89.4519353 C84.94,95.4339919 84.6676837,97.6572084 79.2213572,100.682616 C74.4104355,103.318388 60.2499866,106 42.4813465,106 L42.4359605,106 Z" id="路径"></path>
                        <rect id="矩形" x="84.255" y="63.3692516" width="35.62" height="3.43796358"></rect>
                        <path d="M96.7568819,69.5575861 C95.1416974,69.5575861 93.845,67.3984164 93.845,64.744437 L93.845,64.744437 C93.845,62.0679663 95.1416974,59.931288 96.7568819,59.931288 L134.088118,59.931288 C135.703303,59.931288 137,62.0904577 137,64.744437 L137,64.744437 C137,67.4209078 135.703303,69.5575861 134.088118,69.5575861 L96.7568819,69.5575861 Z" id="路径"></path>
                    </g>
                    <path d="M32,75 L43.25,86.3790596 L38.3738019,86.3790596 L38.3738019,100 L32,100 L32,75 Z M57,75 L57,100 L45.75,88.6209404 L50.6261981,88.6209404 L50.6261981,75 L57,75 Z" id="形状结合"></path>
                    <path d="M25.5247148,158.391304 C26.1845374,158.391304 26.6620406,158.252033 26.9572243,157.97349 C27.2524081,157.694948 27.4,157.244364 27.4,156.621739 L27.4,156.621739 L27.4,150.772343 C27.4,150.149718 27.2524081,149.699134 26.9572243,149.420592 C26.6620406,149.142049 26.1845374,149.002778 25.5247148,149.002778 L25.5247148,149.002778 L15.0543726,149.002778 C13.97782,149.002778 13.1790875,148.814352 12.6581749,148.4375 C12.1372624,148.060648 11.8768061,147.462601 11.8768061,146.643357 L11.8768061,146.643357 L11.8768061,134.944565 C11.8768061,134.125322 12.1372624,133.51089 12.6581749,133.101268 C13.1790875,132.691647 13.97782,132.486836 15.0543726,132.486836 L15.0543726,132.486836 L25.5247148,132.486836 C26.1845374,132.486836 26.6620406,132.347564 26.9572243,132.069022 C27.2524081,131.790479 27.4,131.339895 27.4,130.717271 L27.4,130.717271 L27.4,124.769565 C27.4,124.14694 27.2524081,123.696357 26.9572243,123.417814 C26.6620406,123.139271 26.1845374,123 25.5247148,123 L25.5247148,123 L12.8144487,123 C8.47351077,123 5.25253485,123.827436 3.15152091,125.482307 C1.05050697,127.137178 0,129.668639 0,133.076691 L0,133.076691 L0,148.363768 C0,151.77182 1.05050697,154.295089 3.15152091,155.933575 C5.25253485,157.572061 8.47351077,158.391304 12.8144487,158.391304 L12.8144487,158.391304 L25.5247148,158.391304 Z M47.5717154,160 C50.6291371,160 53.1523318,159.753333 55.1412996,159.26 C57.1302674,158.766667 58.6918537,158.084222 59.8260585,157.212667 C60.9602633,156.341111 61.7492754,155.288667 62.1930946,154.055333 C62.6369139,152.822 62.8588235,151.448889 62.8588235,149.936 L62.8588235,149.936 L62.8588235,133.113333 C62.8588235,131.600444 62.6369139,130.227333 62.1930946,128.994 C61.7492754,127.760667 60.9602633,126.7 59.8260585,125.812 C58.6918537,124.924 57.1302674,124.233333 55.1412996,123.74 C53.1523318,123.246667 50.6291371,123 47.5717154,123 C44.5142938,123 41.9828802,123.246667 39.9774747,123.74 C37.9720691,124.233333 36.4022639,124.924 35.2680591,125.812 C34.1338543,126.7 33.3448423,127.760667 32.901023,128.994 C32.4572038,130.227333 32.2352941,131.600444 32.2352941,133.113333 L32.2352941,133.113333 L32.2352941,149.936 C32.2352941,151.448889 32.4572038,152.822 32.901023,154.055333 C33.3448423,155.288667 34.1338543,156.341111 35.2680591,157.212667 C36.4022639,158.084222 37.9720691,158.766667 39.9774747,159.26 C41.9828802,159.753333 44.5142938,160 47.5717154,160 Z M48.3529412,150.347826 C46.2806723,150.347826 44.9567227,150.127853 44.3810924,149.687905 C43.8054622,149.247958 43.5176471,148.702098 43.5176471,148.050324 L43.5176471,148.050324 L43.5176471,134.900793 C43.5176471,134.281608 43.8054622,133.752042 44.3810924,133.312095 C44.9567227,132.872147 46.2806723,132.652174 48.3529412,132.652174 C50.4252101,132.652174 51.7491597,132.872147 52.3247899,133.312095 C52.9004202,133.752042 53.1882353,134.281608 53.1882353,134.900793 L53.1882353,134.900793 L53.1882353,148.050324 C53.1882353,148.702098 52.9004202,149.247958 52.3247899,149.687905 C51.7491597,150.127853 50.4252101,150.347826 48.3529412,150.347826 Z M84.6423037,160 C87.6997253,160 90.22292,159.753333 92.2118878,159.26 C94.2008557,158.766667 95.762442,158.084222 96.8966468,157.212667 C98.0308516,156.341111 98.8198636,155.288667 99.2636829,154.055333 C99.7075021,152.822 99.9294118,151.448889 99.9294118,149.936 L99.9294118,149.936 L99.9294118,133.113333 C99.9294118,131.600444 99.7075021,130.227333 99.2636829,128.994 C98.8198636,127.760667 98.0308516,126.7 96.8966468,125.812 C95.762442,124.924 94.2008557,124.233333 92.2118878,123.74 C90.22292,123.246667 87.6997253,123 84.6423037,123 C81.5848821,123 79.0534685,123.246667 77.0480629,123.74 C75.0426573,124.233333 73.4728521,124.924 72.3386473,125.812 C71.2044425,126.7 70.4154305,127.760667 69.9716113,128.994 C69.527792,130.227333 69.3058824,131.600444 69.3058824,133.113333 L69.3058824,133.113333 L69.3058824,149.936 C69.3058824,151.448889 69.527792,152.822 69.9716113,154.055333 C70.4154305,155.288667 71.2044425,156.341111 72.3386473,157.212667 C73.4728521,158.084222 75.0426573,158.766667 77.0480629,159.26 C79.0534685,159.753333 81.5848821,160 84.6423037,160 Z M85.4235294,150.347826 C83.3512605,150.347826 82.0273109,150.127853 81.4516807,149.687905 C80.8760504,149.247958 80.5882353,148.702098 80.5882353,148.050324 L80.5882353,148.050324 L80.5882353,134.900793 C80.5882353,134.281608 80.8760504,133.752042 81.4516807,133.312095 C82.0273109,132.872147 83.3512605,132.652174 85.4235294,132.652174 C87.4957983,132.652174 88.8197479,132.872147 89.3953782,133.312095 C89.9710084,133.752042 90.2588235,134.281608 90.2588235,134.900793 L90.2588235,134.900793 L90.2588235,148.050324 C90.2588235,148.702098 89.9710084,149.247958 89.3953782,149.687905 C88.8197479,150.127853 87.4957983,150.347826 85.4235294,150.347826 Z M115.856364,158.391304 C116.485048,158.391304 116.940017,158.252033 117.22127,157.97349 C117.502523,157.694948 117.64315,157.244364 117.64315,156.621739 L117.64315,156.621739 L117.64315,145.365338 L124.194699,145.365338 C124.724117,145.365338 125.121181,145.512802 125.38589,145.807729 C125.650599,146.102657 125.782954,146.512279 125.782954,147.036594 L125.782954,147.036594 L125.782954,156.621739 C125.782954,157.244364 125.92358,157.694948 126.204834,157.97349 C126.486087,158.252033 126.941056,158.391304 127.56974,158.391304 L127.56974,158.391304 L135.213214,158.391304 C135.841898,158.391304 136.296867,158.252033 136.57812,157.97349 C136.859373,157.694948 137,157.244364 137,156.621739 L137,156.621739 L137,142.760145 C137,140.793961 136.445765,139.212822 135.337296,138.016727 C134.228827,136.820632 132.748111,136.17343 130.895147,136.075121 L130.895147,136.075121 L135.957708,124.622101 C136.189329,124.097786 136.205873,123.696357 136.007341,123.417814 C135.808809,123.139271 135.42829,123 134.865783,123 L134.865783,123 L127.222309,123 C126.593625,123 126.080751,123.122886 125.683688,123.368659 C125.286624,123.614432 124.972282,124.032246 124.740662,124.622101 L124.740662,124.622101 L119.628468,136.075121 L117.64315,136.075121 L117.64315,124.769565 C117.64315,124.14694 117.502523,123.696357 117.22127,123.417814 C116.940017,123.139271 116.485048,123 115.856364,123 L115.856364,123 L108.163257,123 C107.534573,123 107.079604,123.139271 106.798351,123.417814 C106.517097,123.696357 106.376471,124.14694 106.376471,124.769565 L106.376471,124.769565 L106.376471,156.621739 C106.376471,157.244364 106.517097,157.694948 106.798351,157.97349 C107.079604,158.252033 107.534573,158.391304 108.163257,158.391304 L108.163257,158.391304 L115.856364,158.391304 Z" id="COOK"></path>
                    <path d="M35.4344106,220 C36.3245519,220 36.968733,219.811111 37.3669541,219.433333 C37.7651752,219.055556 37.9642857,218.444444 37.9642857,217.6 L37.9642857,217.6 L37.9642857,209.666667 C37.9642857,208.822222 37.7651752,208.211111 37.3669541,207.833333 C36.968733,207.455556 36.3245519,207.266667 35.4344106,207.266667 L35.4344106,207.266667 L21.3092749,207.266667 C19.8569392,207.266667 18.7793998,207.011111 18.0766567,206.5 C17.3739136,205.988889 17.0225421,205.177778 17.0225421,204.066667 L17.0225421,204.066667 L17.0225421,188.2 C17.0225421,187.088889 17.3739136,186.255556 18.0766567,185.7 C18.7793998,185.144444 19.8569392,184.866667 21.3092749,184.866667 L21.3092749,184.866667 L35.4344106,184.866667 C36.3245519,184.866667 36.968733,184.677778 37.3669541,184.3 C37.7651752,183.922222 37.9642857,183.311111 37.9642857,182.466667 L37.9642857,182.466667 L37.9642857,174.4 C37.9642857,173.555556 37.7651752,172.944444 37.3669541,172.566667 C36.968733,172.188889 36.3245519,172 35.4344106,172 L35.4344106,172 L18.2874796,172 C12.4312873,172 8.08599267,173.122222 5.2515956,175.366667 C2.41719853,177.611111 1,181.044444 1,185.666667 L1,185.666667 L1,206.4 C1,211.022222 2.41719853,214.444444 5.2515956,216.666667 C8.08599267,218.888889 12.4312873,220 18.2874796,220 L18.2874796,220 L35.4344106,220 Z M57.3281431,220 C58.1859806,220 58.806784,219.811111 59.1905534,219.433333 C59.5743228,219.055556 59.7662075,218.444444 59.7662075,217.6 L59.7662075,217.6 L59.7662075,202.333333 L68.7057768,202.333333 C69.4281662,202.333333 69.9699583,202.533333 70.331153,202.933333 C70.6923478,203.333333 70.8729451,203.888889 70.8729451,204.6 L70.8729451,204.6 L70.8729451,217.6 C70.8729451,218.444444 71.0648298,219.055556 71.4485992,219.433333 C71.8323686,219.811111 72.453172,220 73.3110095,220 L73.3110095,220 L83.7405071,220 C84.5983445,220 85.219148,219.811111 85.6029173,219.433333 C85.9866867,219.055556 86.1785714,218.444444 86.1785714,217.6 L86.1785714,217.6 L86.1785714,198.8 C86.1785714,196.133333 85.42232,193.988889 83.9098171,192.366667 C82.3973142,190.744444 80.3768812,189.866667 77.8485182,189.733333 L77.8485182,189.733333 L84.7563672,174.2 C85.0724126,173.488889 85.0949873,172.944444 84.8240912,172.566667 C84.5531952,172.188889 84.0339778,172 83.266439,172 L83.266439,172 L72.8369414,172 C71.979104,172 71.2792892,172.166667 70.7374971,172.5 C70.195705,172.833333 69.7667863,173.4 69.4507409,174.2 L69.4507409,174.2 L62.4751679,189.733333 L59.7662075,189.733333 L59.7662075,174.4 C59.7662075,173.555556 59.5743228,172.944444 59.1905534,172.566667 C58.806784,172.188889 58.1859806,172 57.3281431,172 L57.3281431,172 L46.8309215,172 C45.973084,172 45.3522806,172.188889 44.9685112,172.566667 C44.5847418,172.944444 44.3928571,173.555556 44.3928571,174.4 L44.3928571,174.4 L44.3928571,217.6 C44.3928571,218.444444 44.5847418,219.055556 44.9685112,219.433333 C45.3522806,219.811111 45.973084,220 46.8309215,220 L46.8309215,220 L57.3281431,220 Z M123.812936,220 C127.959051,220 131.026757,219.111111 133.016054,217.333333 C135.005351,215.555556 136,212.8 136,209.066667 L136,209.066667 L136,202.933333 C136,199.688889 135.350861,197.222222 134.052583,195.533333 C132.754304,193.844444 130.765007,192.866667 128.084691,192.6 C129.341089,192.022222 130.272918,191.144444 130.880177,189.966667 C131.487436,188.788889 131.791066,187.266667 131.791066,185.4 L131.791066,185.4 L131.791066,182.2 C131.791066,178.733333 130.806887,176.166667 128.83853,174.5 C126.870172,172.833333 123.833876,172 119.729642,172 L119.729642,172 L99.6900884,172 C98.8943695,172 98.3185202,172.188889 97.9625407,172.566667 C97.6065612,172.944444 97.4285714,173.555556 97.4285714,174.4 L97.4285714,174.4 L97.4285714,217.6 C97.4285714,218.444444 97.6065612,219.055556 97.9625407,219.433333 C98.3185202,219.811111 98.8943695,220 99.6900884,220 L99.6900884,220 L123.812936,220 Z M115.83885,191.2 L110.285714,191.2 L110.285714,183.2 L115.83885,183.2 C116.666376,183.2 117.287021,183.446914 117.700784,183.940741 C118.114547,184.434568 118.321429,185.175309 118.321429,186.162963 L118.321429,186.162963 L118.321429,188.237037 C118.321429,189.224691 118.114547,189.965432 117.700784,190.459259 C117.287021,190.953086 116.666376,191.2 115.83885,191.2 L115.83885,191.2 Z M120.234694,210.4 L110.285714,210.4 L110.285714,202.4 L120.234694,202.4 C121.204082,202.4 121.931122,202.614689 122.415816,203.044068 C122.90051,203.473446 123.142857,204.140113 123.142857,205.044068 L123.142857,205.044068 L123.142857,207.688136 C123.142857,208.59209 122.90051,209.270056 122.415816,209.722034 C121.931122,210.174011 121.204082,210.4 120.234694,210.4 L120.234694,210.4 Z" id="CKB"></path>
                </g>
            </g>
        </g>
    </g>
</svg>