<?xml version="1.0" encoding="UTF-8"?>
<svg width="30px" height="27px" viewBox="0 0 30 27" version="1.1" xmlns="http://www.w3.org/2000/svg" xmlns:xlink="http://www.w3.org/1999/xlink">
    <g id="Home" stroke="none" stroke-width="1" fill="none" fill-rule="evenodd">
        <g id="Home_02" transform="translate(-1482.000000, -361.000000)" fill-rule="nonzero">
            <g id="connect" transform="translate(1370.000000, 60.000000)">
                <g id="metamask" transform="translate(100.000000, 290.000000)">
                    <g transform="translate(6.000000, 5.000000)" id="27490593_51z_symbol_metamask_isolated">
                        <g id="logo_metamask" transform="translate(6.000000, 6.000000)">
                            <polygon id="路径" fill="#EF8300" points="22.6445565 14.0667333 20.6189445 17.7668364 22.6406766 14.0706132"></polygon>
                            <path d="M29.7031509,19.8272886 L29.1695921,19.8272886 L27.5378442,26.2339693 L21.1893948,23.9813793 C21.1893948,23.9813793 21.1602791,24.0454147 21.1195395,24.119134 L20.9992447,24.0124668 L20.9002897,23.9251199 L17.41562,24.2626768 L17.3942802,23.5487315 L17.3942802,23.5468392 L17.0159359,22.9724454 L15.2231536,22.9724454 L15.2231536,20.0524219 L16.2883471,20.0524219 L16.2883471,19.87194 L16.5192368,19.87194 L17.305041,20.5471334 L17.3166809,20.6965438 L20.6189763,19.1463388 L23.8669363,19.1463388 L29.6896028,19.8137723 L29.7031509,19.8272886 Z" id="路径" fill="#EF8300"></path>
                            <polygon id="路径" fill="#733800" points="28.8280916 9.37331146 28.0558832 10.0252092 28.7097368 10.5006003 27.9976678 11.3018925 28.381832 11.7462121 27.2254594 13.0791868 27.2487391 13.1547825 21.2417584 11.5153383 17.1711345 7.75706755 19.5886707 5.91971335 27.262319 0.087346915 27.264259 0.087346915 27.464109 -1.80779074e-15 28.9755621 4.50915529 28.3236325 8.92899187"></polygon>
                            <path d="M29.7031509,19.8272886 L29.1695921,19.8272886 L27.5378442,26.2339693 L21.1893948,23.9813793 C21.1893948,23.9813793 21.1602791,24.0454147 21.1195395,24.119134 L20.9992447,24.0124668 L20.9002897,23.9251199 L17.3186209,20.7140673 L17.305041,20.7024115 L17.3166809,20.6965438 L20.6189763,19.1463388 L23.8669363,19.1463388 L29.6896028,19.8137723 L29.7031509,19.8272886 Z" id="路径" fill="#DC7600"></path>
                            <polygon id="路径" fill="#D4C2B1" points="20.9002738 23.925104 17.4156041 24.2626609 17.3942643 23.5487156 17.3942643 23.5468074 17.3050092 20.7023956 17.3185891 20.7140514"></polygon>
                            <polygon id="路径" fill="#C66100" points="23.8669045 19.1463229 20.9992288 24.0124509 20.6189445 19.1463229"></polygon>
                            <polygon id="路径" fill="#DC7600" points="27.262319 0.087346915 19.5886707 5.91971335 17.1711345 7.75706755 18.6534879 3.82620195 18.6845276 3.82620195 18.9386971 3.71554345"></polygon>
                            <path d="M23.31005,13.9697183 L22.7764912,13.8223114 L22.6406766,14.0706132 L20.6189445,17.7668205 L20.3453593,16.1661282 L17.4388839,16.9654328 L16.6977152,18.4496943 L16.9344249,14.0298736 L16.311611,13.2887367 L16.9926403,13.8513952 L17.1711345,7.75706755 L21.2417584,11.5153383 C21.2417584,11.5153383 22.7764912,13.4070756 22.9258858,13.5253987 C23.0733403,13.6438171 23.31005,13.9697183 23.31005,13.9697183 Z" id="路径" fill="#DC7600"></path>
                            <polygon id="路径" fill="#C66100" points="22.7764912 13.8223114 22.6406766 14.0706132 20.6189445 17.7668364 20.3453593 16.1661282 17.4388839 16.9654487 16.6977152 18.4497102 16.9693605 14.2277836 16.9926403 13.8513952"></polygon>
                            <polygon id="路径" fill="#263344" points="17.4388839 16.9654487 18.3275231 15.3860645 18.038418 15.0310795 20.3453593 16.1661282"></polygon>
                            <polygon id="路径" fill="#DC7312" points="17.4388839 16.9654487 16.6977152 18.4497102 16.9344249 14.0298895 16.9693605 14.2277836"></polygon>
                            <polygon id="路径" fill="#DC7312" points="22.6445565 14.0667333 20.6189445 17.7668364 20.3453593 16.1661282 22.6406766 14.0706132"></polygon>
                            <path d="M30,19.3985047 L29.4509055,19.2937298 L29.4509055,19.0725241 L29.093901,19.2200263 L27.2487391,13.1547825 L21.2417584,11.5153383 C21.2417584,11.5153383 22.7764912,13.4070756 22.9258858,13.5253987 C23.0733403,13.6438171 23.3100659,13.9697183 23.3100659,13.9697183 L22.7765071,13.8223114 L22.6406925,14.0706132 L22.6445724,14.0667333 L20.6189604,17.7668364 L20.3453752,16.1661441 L17.4388998,16.9654487 L16.6977311,18.4497102 L16.9344408,14.0298895 L16.3116269,13.2887526 L16.9926562,13.8514111 L17.1711504,7.75708345 L18.6534879,3.82620195 L15.3589524,3.82060463 L15.3589524,3.8203184 L15.2857419,3.8203184 L15.2231377,3.8203184 L15.2231377,3.82050922 L11.346528,3.82620195 L12.8288655,7.75708345 L13.0073597,13.8514111 L13.688389,13.2887526 L13.0655751,14.0298895 L13.3022848,18.4497102 L12.5611161,16.9654487 L9.65464072,16.1661441 L9.38105549,17.7668364 L7.35545938,14.0667333 L7.35933935,14.0706132 L7.22350877,13.8223114 L6.68994999,13.9697183 C6.68994999,13.9697183 6.92667555,13.6438171 7.07413012,13.5253987 C7.22350877,13.4070756 8.75824161,11.5153383 8.75824161,11.5153383 L2.75127676,13.1547825 L0.906099019,19.2200263 L0.549078641,19.0725241 L0.549078641,19.2937298 L6.77921528e-16,19.3985047 L0.549078641,19.5906266 L0.310428996,19.8137405 L6.13309552,19.146307 L9.38105549,19.146307 L12.6833509,20.696512 L12.6949908,20.5471016 L13.4807791,19.8719082 L13.7116688,19.8719082 L13.7116688,20.0523901 L15.2231218,20.0523901 L15.3589365,20.0523901 L16.2883153,20.0523901 L16.2883153,19.8719082 L16.519205,19.8719082 L17.3050092,20.5471016 L17.3166491,20.696512 L20.6189445,19.146307 L23.8669045,19.146307 L29.689571,19.8137405 L29.4509214,19.5906266 L30,19.3985047 Z" id="路径" fill="#EF8300"></path>
                            <polygon id="路径" fill="#EF8300" points="7.35545938 14.0667333 9.38107139 17.7668364 7.35933935 14.0706132"></polygon>
                            <path d="M20.9992288,24.0124509 L20.9002738,23.925104 L17.4156041,24.2626609 L17.3942643,23.5487156 L17.3942643,23.5468233 L17.01592,22.9724295 L15.5529666,22.9724295 L15.2231377,22.9724295 L12.9840959,22.9724295 L12.6057516,23.5468233 L12.6057516,23.5487156 L12.5844118,24.2626609 L9.09975803,23.925104 L9.00080303,24.0124509 L8.88050821,24.1191181 C8.95228756,24.2472046 9.05319845,24.4062673 9.0919822,24.3209081 C9.15019758,24.1889416 9.22584099,23.9949115 9.22584099,23.9949115 L12.7396263,25.655775 L15.2231377,25.655775 L15.5529666,25.655775 L17.2603896,25.655775 L20.774159,23.9949115 C20.774159,23.9949115 20.8498342,24.1889416 20.9080337,24.3209081 C20.9468333,24.4062673 21.0477283,24.2472046 21.1195077,24.1191181 L20.9992288,24.0124509 Z" id="路径" fill="#BEAC9C"></path>
                            <path d="M0.29686502,19.8272886 L0.830423801,19.8272886 L2.46217167,26.2339693 L8.81062114,23.9813793 C8.81062114,23.9813793 8.83973678,24.0454147 8.88047641,24.119134 L9.00077122,24.0124668 L9.09972623,23.9251199 L12.58438,24.2626768 L12.6057198,23.5487315 L12.6057198,23.5468392 L12.9840641,22.9724454 L14.7768464,22.9724454 L14.7768464,20.0524219 L13.7116529,20.0524219 L13.7116529,19.87194 L13.4807632,19.87194 L12.6949749,20.5471334 L12.683335,20.6965438 L9.38103959,19.1463388 L6.13311142,19.1463388 L0.310444897,19.8137405 L0.29686502,19.8272886 Z" id="路径" fill="#EF8300"></path>
                            <polygon id="路径" fill="#733800" points="1.17192432 9.37331146 1.94414865 10.0252092 1.29027915 10.5006003 2.00234812 11.3018925 1.61818389 11.7462121 2.77455655 13.0791868 2.75127676 13.1547825 8.75825751 11.5153383 12.8288814 7.75706755 10.4113293 5.91971335 2.73769688 0.087346915 2.7357569 0.087346915 2.5359069 -1.80779074e-15 1.02445385 4.50915529 1.67638336 8.92899187"></polygon>
                            <path d="M0.29686502,19.8272886 L0.830423801,19.8272886 L2.46217167,26.2339693 L8.81062114,23.9813793 C8.81062114,23.9813793 8.83973678,24.0454147 8.88047641,24.119134 L9.00077122,24.0124668 L9.09972623,23.9251199 L12.681395,20.7140673 L12.6949749,20.7024115 L12.683335,20.6965438 L9.38103959,19.1463388 L6.13311142,19.1463388 L0.310444897,19.8137405 L0.29686502,19.8272886 Z" id="路径" fill="#DC7600"></path>
                            <polygon id="路径" fill="#D4C2B1" points="9.09974213 23.925104 12.5844118 24.2626609 12.6057516 23.5487156 12.6057516 23.5468074 12.6950067 20.7023956 12.6814109 20.7140514"></polygon>
                            <polygon id="路径" fill="#C66100" points="6.13311142 19.1463229 9.00078712 24.0124509 9.38107139 19.1463229"></polygon>
                            <polygon id="路径" fill="#DC7600" points="2.73769688 0.087346915 10.4113293 5.91971335 12.8288814 7.75706755 11.346528 3.82620195 11.3154883 3.82620195 11.0613188 3.71554345"></polygon>
                            <path d="M6.68996589,13.9697183 L7.22352467,13.8223114 L7.35933935,14.0706132 L9.38107139,17.7668205 L9.65465662,16.1661282 L12.561132,16.9654328 L13.3023007,18.4496943 L13.065591,14.0298736 L13.6884049,13.2887367 L13.0073756,13.8513952 L12.8288814,7.75706755 L8.75825751,11.5153383 C8.75825751,11.5153383 7.22352467,13.4070756 7.07413012,13.5253987 C6.92667555,13.6438171 6.68996589,13.9697183 6.68996589,13.9697183 Z" id="路径" fill="#DC7600"></path>
                            <polygon id="路径" fill="#C66100" points="7.22352467 13.8223114 7.35933935 14.0706132 9.38107139 17.7668364 9.65465662 16.1661282 12.561132 16.9654487 13.3023007 18.4497102 13.0306554 14.2277836 13.0073756 13.8513952"></polygon>
                            <polygon id="路径" fill="#263344" points="12.561132 16.9654487 11.6724928 15.3860645 11.9615979 15.0310795 9.65465662 16.1661282"></polygon>
                            <polygon id="路径" fill="#DC7312" points="12.561132 16.9654487 13.3023007 18.4497102 13.065591 14.0298895 13.0306554 14.2277836"></polygon>
                            <polygon id="路径" fill="#DC7312" points="7.35545938 14.0667333 9.38107139 17.7668364 9.65465662 16.1661282 7.35933935 14.0706132"></polygon>
                            <polygon id="路径" fill="#000000" points="17.5708186 23.8184367 17.3185891 20.7140514 17.3166491 20.696512 17.3050092 20.5471175 16.5192209 19.8719241 16.2883312 19.8719241 16.2883312 20.0523901 13.7116847 20.0523901 13.7116847 19.8719241 13.480795 19.8719241 12.6950067 20.5471175 12.6833668 20.696512 12.6814109 20.7140514 12.4291973 23.8184367 12.6057516 23.5487156 12.6057516 23.5468074 12.9840959 22.9724136 14.6352435 22.9724136 15.3647724 22.9724136 17.01592 22.9724136 17.3942643 23.5468074 17.3942643 23.5487156"></polygon>
                        </g>
                    </g>
                </g>
            </g>
        </g>
    </g>
</svg>