<?xml version="1.0" encoding="UTF-8"?>
<svg width="21px" height="22px" viewBox="0 0 21 22" version="1.1" xmlns="http://www.w3.org/2000/svg" xmlns:xlink="http://www.w3.org/1999/xlink">
    <g id="Home" stroke="none" stroke-width="1" fill="none" fill-rule="evenodd">
        <g id="Home_02" transform="translate(-1487.000000, -434.000000)" fill="#FFFFFF" fill-rule="nonzero">
            <g id="connect" transform="translate(1370.000000, 60.000000)">
                <g id="OKX" transform="translate(100.000000, 360.000000)">
                    <g id="logo_okx" transform="translate(17.065440, 14.907040)">
                        <path d="M13.02048,6.71328 L7.1856,6.71328 C6.93792,6.71328 6.73488,6.91632 6.73488,7.164 L6.73488,12.99888 C6.73488,13.24656 6.93792,13.4496 7.1856,13.4496 L13.02048,13.4496 C13.26816,13.4496 13.4712,13.24656 13.4712,12.99888 L13.4712,7.164 C13.4712,6.91632 13.26816,6.71328 13.02048,6.71328 Z" id="路径"></path>
                        <path d="M6.2856,-1.63709046e-15 L0.45072,-1.63709046e-15 C0.20304,-1.63709046e-15 -1.63709046e-15,0.20304 -1.63709046e-15,0.45072 L-1.63709046e-15,6.2856 C-1.63709046e-15,6.53328 0.20304,6.73632 0.45072,6.73632 L6.2856,6.73632 C6.53328,6.73632 6.73632,6.53328 6.73632,6.2856 L6.73632,0.45072 C6.73488,0.20304 6.53328,-1.63709046e-15 6.2856,-1.63709046e-15 Z" id="路径"></path>
                        <path d="M19.73376,-1.63709046e-15 L13.89888,-1.63709046e-15 C13.6512,-1.63709046e-15 13.44816,0.20304 13.44816,0.45072 L13.44816,6.2856 C13.44816,6.53328 13.6512,6.73632 13.89888,6.73632 L19.73376,6.73632 C19.98144,6.73632 20.18448,6.53328 20.18448,6.2856 L20.18448,0.45072 C20.18448,0.20304 19.98144,-1.63709046e-15 19.73376,-1.63709046e-15 Z" id="路径"></path>
                        <path d="M6.2856,13.42656 L0.45072,13.42656 C0.20304,13.42656 0,13.6296 0,13.87728 L0,19.71216 C0,19.95984 0.20304,20.16288 0.45072,20.16288 L6.2856,20.16288 C6.53328,20.16288 6.73632,19.95984 6.73632,19.71216 L6.73632,13.87728 C6.73488,13.6296 6.53328,13.42656 6.2856,13.42656 Z" id="路径"></path>
                        <path d="M19.73376,13.42656 L13.89888,13.42656 C13.6512,13.42656 13.44816,13.6296 13.44816,13.87728 L13.44816,19.71216 C13.44816,19.95984 13.6512,20.16288 13.89888,20.16288 L19.73376,20.16288 C19.98144,20.16288 20.18448,19.95984 20.18448,19.71216 L20.18448,13.87728 C20.18448,13.6296 19.98144,13.42656 19.73376,13.42656 Z" id="路径"></path>
                    </g>
                </g>
            </g>
        </g>
    </g>
</svg>