<?xml version="1.0" encoding="utf-8"?>
<svg viewBox="0 0 200.074 163.022" width="200.074" height="163.022" xmlns="http://www.w3.org/2000/svg">
  <path d="M 144.942 77.456 C 150.801 77.456 155.551 72.709 155.551 66.855 C 155.551 61 150.801 56.254 144.942 56.254 C 139.083 56.254 134.334 61 134.334 66.855 C 134.334 72.709 139.083 77.456 144.942 77.456 Z" fill="#8CDD00"/>
  <path d="M 73.522 56.254 C 68.212 56.254 63.901 60.561 63.901 65.868 C 63.901 71.174 68.212 75.482 73.522 75.482 C 78.833 75.482 83.144 71.174 83.144 65.868 C 83.132 60.561 78.833 56.254 73.522 56.254 Z" fill="#8CDD00"/>
  <path d="M 102.519 48.372 L 91.887 98.886 C 90.899 103.603 86.673 107.021 81.856 107.021 C 78.737 107.021 75.835 105.625 73.872 103.206 C 72.343 101.317 71.572 98.995 71.609 96.612 L 52.402 101.57 C 53.221 106.599 55.292 111.401 58.591 115.504 C 64.287 122.567 72.765 126.622 81.844 126.622 C 95.885 126.622 108.167 116.659 111.057 102.929 L 122.545 48.384 L 102.519 48.384 L 102.519 48.372 Z" fill="#C1C1C1"/>
  <path d="M 192.52 12.478 C 186.077 4.548 176.516 0 166.293 0 L 142.631 0 L 138.501 19.589 L 166.293 19.589 C 170.58 19.589 174.59 21.49 177.287 24.824 C 179.984 28.145 181.032 32.464 180.153 36.652 L 176.022 56.254 L 196.06 56.254 L 199.347 40.695 C 201.442 30.696 198.962 20.407 192.52 12.478 Z" fill="#8CDD00"/>
  <path d="M 162.655 119.763 C 159.765 133.481 147.495 143.432 133.466 143.432 L 112.405 143.432 L 108.275 163.022 L 133.466 163.022 C 156.707 163.022 177.057 146.524 181.838 123.794 L 185.306 107.309 L 165.268 107.309 L 162.655 119.763 Z" fill="#8CDD00"/>
  <path d="M 18.241 39.227 L 14.653 56.265 L 34.69 56.265 L 37.424 43.27 C 40.314 29.552 52.584 19.601 66.613 19.601 L 86.795 19.601 L 90.925 0.011 L 66.613 0.011 C 43.372 -0.001 23.022 16.496 18.241 39.227 Z" fill="#8CDD00"/>
  <path d="M 22.792 138.186 C 20.095 134.864 19.047 130.545 19.926 126.357 L 23.587 108.994 L 2.393 114.457 L 0.732 122.326 C -1.376 132.326 1.117 142.614 7.559 150.543 C 14.002 158.473 23.563 163.022 33.786 163.022 L 56.569 163.022 L 60.699 143.432 L 33.786 143.432 C 29.499 143.42 25.489 141.519 22.792 138.186 Z" fill="#8CDD00"/>
</svg>