<?xml version="1.0" encoding="UTF-8"?>
<svg width="24px" height="30px" viewBox="0 0 24 30" version="1.1" xmlns="http://www.w3.org/2000/svg" xmlns:xlink="http://www.w3.org/1999/xlink">
    <defs>
        <linearGradient x1="91.8754948%" y1="29.0479714%" x2="5.11558134%" y2="67.2683165%" id="linearGradient-1">
            <stop stop-color="#201C1B" offset="0%"></stop>
            <stop stop-color="#77390D" offset="36%"></stop>
            <stop stop-color="#EA8101" offset="67%"></stop>
            <stop stop-color="#F4B852" offset="100%"></stop>
        </linearGradient>
        <linearGradient x1="10.5140631%" y1="63.3160009%" x2="111.062697%" y2="37.684706%" id="linearGradient-2">
            <stop stop-color="#1F1D1C" offset="0%"></stop>
            <stop stop-color="#77390D" offset="37%"></stop>
            <stop stop-color="#EA8101" offset="67%"></stop>
            <stop stop-color="#F4FB52" offset="100%"></stop>
        </linearGradient>
        <radialGradient cx="50%" cy="50.0449236%" fx="50%" fy="50.0449236%" r="50%" id="radialGradient-3">
            <stop stop-color="#F4B852" offset="0%"></stop>
            <stop stop-color="#EA8101" offset="33%"></stop>
            <stop stop-color="#77390D" offset="64%"></stop>
            <stop stop-color="#211C1D" offset="100%"></stop>
        </radialGradient>
    </defs>
    <g id="Home" stroke="none" stroke-width="1" fill="none" fill-rule="evenodd">
        <g id="Home_02" transform="translate(-1485.000000, -500.000000)" fill-rule="nonzero">
            <g id="connect" transform="translate(1370.000000, 60.000000)">
                <g id="unisat" transform="translate(100.000000, 430.000000)">
                    <g id="logo_unisat" transform="translate(15.000000, 10.000000)">
                        <path d="M16.5870186,2.69901328 L22.7436055,8.79669527 C23.2676568,9.31465293 23.52562,9.83870422 23.5176813,10.3668179 C23.5093704,10.8949316 23.2839065,11.3763276 22.8431347,11.813037 C22.3820508,12.2700584 21.8844052,12.501616 21.3522291,12.511772 C20.820053,12.5198968 20.2919393,12.2639648 19.767888,11.7460071 L13.4711477,5.51020311 C12.756163,4.80131203 12.0655528,4.29960402 11.4013483,4.00507907 C10.7371438,3.71055413 10.0384087,3.66383638 9.30717437,3.86695703 C8.57390881,4.06804648 7.78783189,4.58600414 6.94488118,5.41879882 C5.78303104,6.57049292 5.22851166,7.65109479 5.28538545,8.66060443 C5.34225923,9.67011408 5.91912188,10.7182166 7.0139422,11.8008497 L13.3614626,18.0894651 C13.8916075,18.6135164 14.1516019,19.1375677 14.1434771,19.6575566 C14.1353523,20.1795766 13.9078571,20.6609726 13.4589605,21.1058068 C13.0120951,21.5486098 12.5185119,21.7801674 11.9822734,21.7984482 C11.4460348,21.8167291 10.9118275,21.5628283 10.3837138,21.038777 L4.22712685,14.941095 C3.22574203,13.9498662 2.5026325,13.0114488 2.05779828,12.1258428 C1.61296405,11.2402367 1.44640511,10.2388519 1.56218388,9.12168831 C1.66577542,8.16499004 1.9724876,7.23875986 2.48435165,6.34096658 C2.99418448,5.44317329 3.72541883,4.52506794 4.67399228,3.58461932 C5.80334311,2.46542453 6.88191378,1.60825537 7.90970428,1.01108065 C8.93546357,0.413905936 9.92872356,0.0828192723 10.887453,0.0137582505 C11.8482137,-0.0553027714 12.794756,0.135630642 13.7311422,0.586558491 C14.6675284,1.03748634 15.618133,1.7402838 16.5849874,2.69901328 L16.5870186,2.69901328 Z" id="路径" fill="url(#linearGradient-1)"></path>
                        <path d="M6.92863153,27.3030179 L0.774075751,21.2053359 C0.250024467,20.6853471 -0.00793876138,20.163327 0,19.6352133 C0.00831089082,19.1070996 0.233774815,18.6257036 0.674546631,18.1889942 C1.13563051,17.7319728 1.63327611,17.5004152 2.16545222,17.4902592 C2.69762833,17.4821344 3.22574203,17.7360352 3.74979331,18.2560241 L10.0445023,24.4918281 C10.7615182,25.2007192 11.4500973,25.7024272 12.1143018,25.9969521 C12.7785063,26.2914771 13.4772414,26.3361636 14.2105069,26.1350742 C14.9437725,25.9339847 15.7298494,25.4160271 16.5728001,24.5812012 C17.7346502,23.4295071 18.2891696,22.3489052 18.2322958,21.3393956 C18.1754221,20.3298859 17.5985594,19.2817834 16.5037391,18.1971191 L13.1217802,14.8760964 C12.5916353,14.3520451 12.3316409,13.8279938 12.3397657,13.308005 C12.3478905,12.7859849 12.5753857,12.3045889 13.0242823,11.8597547 C13.4711477,11.4169517 13.9647309,11.1853941 14.5009695,11.1671133 C15.037208,11.1488324 15.5714153,11.4027332 16.099529,11.9267845 L19.2885232,15.0568738 C20.2899081,16.0481026 21.0130176,16.98652 21.4578518,17.872126 C21.902686,18.7577321 22.069245,19.7591169 21.9534662,20.8762805 C21.8498747,21.8329788 21.5431625,22.7592089 21.0312984,23.6570022 C20.5214656,24.5547955 19.7902312,25.4729008 18.8416578,26.4133495 C17.712307,27.5325443 16.6337363,28.3897134 15.6059458,28.9868881 C14.5781553,29.5840629 13.5848953,29.9171807 12.6241346,29.9862417 C11.6633739,30.0553028 10.7168317,29.8643694 9.78044549,29.4134415 C8.84405928,28.9625137 7.89345463,28.2597162 6.92660032,27.3009867 L6.92863153,27.3030179 Z" id="路径" fill="url(#linearGradient-2)"></path>
                        <circle id="椭圆形" fill="url(#radialGradient-3)" cx="10.7676119" cy="9.30855931" r="2.26073286"></circle>
                    </g>
                </g>
            </g>
        </g>
    </g>
</svg>