<?xml version="1.0" encoding="UTF-8"?>
<svg width="154px" height="24px" viewBox="0 0 154 24" version="1.1" xmlns="http://www.w3.org/2000/svg" xmlns:xlink="http://www.w3.org/1999/xlink">
    <g id="Home" stroke="none" stroke-width="1" fill="none" fill-rule="evenodd">
        <g id="Home_02" transform="translate(-1543.000000, -173.000000)">
            <g id="connect" transform="translate(1370.000000, 60.000000)">
                <g id="joyid" transform="translate(50.000000, 100.000000)">
                    <g id="logo_joyid_large" transform="translate(123.000012, 13.000000)">
                        <path d="M34.7397885,18.5085 C34.1127885,18.0267 33.7708885,17.2898 33.7123885,16.2995 L36.1303885,15.1108 C36.1799885,15.6671 36.3234885,16.0816 36.5643885,16.3544 C36.8053885,16.6272 37.1578885,16.7618 37.6254885,16.7618 C38.2384885,16.7618 38.7149885,16.5369 39.0514885,16.0851 C39.3880885,15.6334 39.6413885,14.9319 39.8096885,13.9789 L41.3189885,5.4226 L43.9867885,5.4226 L42.4331885,14.2393 C42.1214885,16.009 41.4854885,17.2827 40.5253885,18.0621 C39.5652885,18.8416 38.4474885,19.23131 37.1719885,19.23131 C36.1764885,19.2331 35.3668885,18.9921 34.7397885,18.5085 Z M45.4907885,11.5502 C46.0735885,10.7831 46.7768885,10.1914 47.5970885,9.7769 C48.4189885,9.3624 49.2639885,9.1551 50.1355885,9.1551 C50.9946885,9.1551 51.7581885,9.3624 52.4277885,9.7769 C53.0973885,10.1914 53.5880885,10.7831 53.8998885,11.5502 C54.2116885,12.3172 54.2807885,13.2012 54.1035885,14.2038 C53.9264885,15.2065 53.5473885,16.0905 52.9645885,16.8575 C52.3817885,17.6246 51.6837885,18.2127 50.8689885,18.6201 C50.0540885,19.0276 49.2179885,19.2331 48.3587885,19.2331 C47.4872885,19.2331 46.7130885,19.0293 46.0363885,18.6201 C45.3597885,18.2127 44.8654885,17.6246 44.5536885,16.8575 C44.2401885,16.0905 44.1728885,15.2065 44.3499885,14.2038 C44.5289885,13.2012 44.9079885,12.3172 45.4907885,11.5502 Z M47.2781885,16.2357 C47.6129885,16.737 48.1001885,16.9868 48.7378885,16.9868 C49.3755885,16.9868 49.9477885,16.737 50.4526885,16.2357 C50.9574885,15.7344 51.2869885,15.0577 51.4357885,14.2038 C51.5863885,13.35 51.4977885,12.6697 51.1700885,12.1613 C50.8423885,11.6547 50.3587885,11.3996 49.7210885,11.3996 C49.0832885,11.3996 48.5075885,11.6529 47.9956885,12.1613 C47.4818885,12.668 47.1506885,13.3482 47.0000885,14.2038 C46.8512885,15.0577 46.9433885,15.7344 47.2781885,16.2357 Z M65.4621885,9.396 L62.7943885,9.396 L59.3223885,16.0231 L57.9689885,9.3977 L55.0974885,9.3977 L57.5136885,19.1781 C57.1682885,19.7467 56.8777885,20.1772 56.6421885,20.4677 C56.4064885,20.7582 56.1779885,20.9619 55.9547885,21.0806 C55.7315885,21.1975 55.4782885,21.256 55.1966885,21.256 C54.7555885,21.256 54.3746885,21.1214 54.0540885,20.8486 L52.6953885,22.8167 C52.9380885,23.0381 53.2427885,23.2153 53.6058885,23.3446 C53.9689885,23.4739 54.3728885,23.5394 54.8139885,23.5394 C55.7227885,23.5394 56.5251885,23.2826 57.2231885,22.7688 C57.9210885,22.2551 58.5977885,21.4243 59.2549885,20.2728 L65.4621885,9.396 Z M67.9280885,19.0099 L65.2602885,19.0099 L67.6552885,5.4244 L70.3230885,5.4244 L67.9280885,19.0099 Z M81.0509885,6.2233 C80.0839885,5.6901 78.9429885,5.4244 77.6299885,5.4244 L77.6299885,5.4262 L73.1395885,5.4262 L70.7445885,19.0117 L75.2351885,19.0117 C76.5602885,19.0117 77.7989885,18.7424 78.9479885,18.2039 C80.0999885,17.6671 81.0699885,16.8841 81.8659885,15.8567 C82.6589885,14.8292 83.1799885,13.6104 83.4299885,12.2003 C83.6799885,10.7884 83.5879885,9.5732 83.1539885,8.5528 C82.7199885,7.5307 82.0179885,6.7566 81.0509885,6.2233 Z M78.8649885,15.5396 C77.9539885,16.319 76.7745885,16.7087 75.3273885,16.7087 L73.8180885,16.7087 L75.4052885,7.7078 L76.9145885,7.7078 C78.3489885,7.7078 79.3879885,8.1011 80.0289885,8.8859 C80.6679885,9.6724 80.8649885,10.776 80.6129885,12.1985 C80.3579885,13.6476 79.7749885,14.7601 78.8649885,15.5396 Z" id="形状" fill="#232323"></path>
                        <path d="M15.0821885,7.1213 L13.5179885,14.558 C13.3727885,15.2524 12.7509885,15.7555 12.0423885,15.7555 C11.5835885,15.7555 11.1566885,15.55 10.8679885,15.194 C10.6429885,14.9158 10.5295885,14.5739 10.5348885,14.2232 L7.70948847,14.953 C7.82988847,15.6935 8.13458847,16.4003 8.61998847,17.0044 C9.45788847,18.0443 10.7049885,18.6413 12.0406885,18.6413 C14.1061885,18.6413 15.9129885,17.1745 16.3381885,15.1532 L18.0280885,7.1231 L15.0821885,7.1231 L15.0821885,7.1213 Z" id="路径" fill="#FFFFFF" fill-rule="nonzero"></path>
                        <path d="M28.3214885,1.837 C27.3737885,0.6696 25.9672885,0 24.4632885,0 L20.9823885,0 L20.3747885,2.884 L24.4632885,2.884 C25.0939885,2.884 25.6837885,3.1639 26.0806885,3.6546 C26.4774885,4.1435 26.6315885,4.7794 26.5022885,5.3959 L25.8945885,8.2817 L28.8422885,8.2817 L29.3258885,5.9911 C29.6341885,4.519 29.2691885,3.0044 28.3214885,1.837 Z M9.39968847,9.697 C9.39968847,8.9158 10.0337885,8.2816 10.8149885,8.2816 C11.5962885,8.2816 12.2286885,8.9158 12.2303885,9.697 C12.2303885,10.4782 11.5962885,11.1124 10.8149885,11.1124 C10.0337885,11.1124 9.39968847,10.4782 9.39968847,9.697 Z M22.8826885,9.8424 C22.8826885,10.7043 22.1839885,11.4031 21.3220885,11.4031 C20.4600885,11.4031 19.7613885,10.7043 19.7613885,9.8424 C19.7613885,8.9804 20.4600885,8.2817 21.3220885,8.2817 C22.1839885,8.2817 22.8826885,8.9804 22.8826885,9.8424 Z M19.6353885,21.116 C21.6991885,21.116 23.5042885,19.651 23.9293885,17.6315 L24.3137885,15.798 L27.2614885,15.798 L26.7512885,18.2249 C26.0480885,21.5713 23.0542885,24 19.6353885,24 L15.9295885,24 L16.5371885,21.116 L19.6353885,21.116 Z M2.68278847,5.775 L2.15488847,8.2835 L5.10258847,8.2835 L5.50468847,6.3702 C5.92988847,4.3508 7.73498847,2.8857 9.79868847,2.8857 L12.7675885,2.8857 L13.3751885,0.00179900013 L9.79868847,0.00179900013 C6.37978847,-1.98192157e-16 3.38608847,2.4287 2.68278847,5.775 Z M2.93138847,18.6023 C2.80208847,19.2188 2.95618847,19.8547 3.35298847,20.3437 C3.74978847,20.8344 4.33968847,21.1143 4.97028847,21.116 L8.92948847,21.116 L8.32188847,24 L4.97028847,24 C3.46628847,24 2.05978847,23.3304 1.11208847,22.163 C0.164388467,20.9956 -0.202311533,19.4809 0.107688467,18.0088 L0.352088467,16.8503 L3.46988847,16.0461 L2.93138847,18.6023 Z" id="形状" fill="#FFFFFF"></path>
                        <path d="M89.6029885,6 L86.9999885,19.1973 L88.5979885,19.1973 L89.5679885,14.3772 L92.2839885,14.3772 C93.3069885,14.3772 94.1759885,14.1882 94.8939885,13.8101 C95.6159885,13.4321 96.1869885,12.9252 96.6079885,12.2894 C97.0329885,11.6535 97.3099885,10.949 97.4389885,10.1757 C97.5679885,9.3938 97.5249885,8.6872 97.3099885,8.0556 C97.0999885,7.4241 96.6939885,6.9236 96.0929885,6.5542 C95.4949885,6.1847 94.6809885,6 93.6499885,6 L89.6029885,6 Z M89.8539885,12.9595 L92.4649885,12.9595 C93.1689885,12.9595 93.7579885,12.8371 94.2299885,12.5922 C94.7029885,12.3474 95.0719885,12.0144 95.3389885,11.5934 C95.6049885,11.1724 95.7809885,10.6998 95.8669885,10.1757 C95.9529885,9.643 95.9309885,9.1705 95.8029885,8.758 C95.6779885,8.3413 95.4179885,8.0148 95.0229885,7.7785 C94.6319885,7.538 94.0799885,7.4177 93.3669885,7.4177 L90.9699885,7.4177 L89.8539885,12.9595 Z M126.782988,15.7727 L126.127988,19.1973 L124.426988,19.1973 L127.131988,6 L128.651988,6 L127.177988,13.707 L127.543988,13.707 L132.621988,9.2993 L134.503988,9.2993 L129.609988,13.5371 L133.162988,19.1973 L131.229988,19.1973 L128.319988,14.512 L126.782988,15.7727 Z M137.892988,19.4036 C136.942988,19.4036 136.158988,19.1931 135.540988,18.7721 C134.921988,18.3467 134.489988,17.7539 134.245988,16.9935 C134.000988,16.2288 133.961988,15.3395 134.129988,14.3257 C134.296988,13.3118 134.629988,12.4183 135.127988,11.645 C135.626988,10.8674 136.247988,10.2617 136.990988,9.8278 C137.733988,9.3896 138.549988,9.1705 139.438988,9.1705 C139.954988,9.1705 140.450988,9.2564 140.927988,9.4282 C141.404988,9.6001 141.816988,9.8793 142.164988,10.266 C142.512988,10.6483 142.755988,11.1552 142.892988,11.7867 C143.030988,12.4183 143.021988,13.1958 142.867988,14.1195 L142.764988,14.7639 L135.564988,14.7639 C135.444988,15.5603 135.466988,16.1961 135.630988,16.6713 C135.802988,17.1568 136.100988,17.5069 136.526988,17.7217 C136.951988,17.9322 137.484988,18.0374 138.124988,18.0374 C138.532988,18.0374 138.908988,17.9816 139.252988,17.8699 C139.595988,17.7539 139.902988,17.5821 140.173988,17.3544 C140.444988,17.1224 140.671988,16.8346 140.856988,16.4909 L142.248988,16.9033 C142.012988,17.4016 141.679988,17.8398 141.249988,18.2179 C140.824988,18.5916 140.326988,18.8837 139.754988,19.0943 C139.187988,19.3005 138.566988,19.4036 137.892988,19.4036 Z M136.371988,12.1605 C136.070988,12.583 135.872988,13.0126 135.777988,13.4493 L141.423988,13.4493 C141.522988,12.8908 141.496988,12.3925 141.346988,11.9543 C141.200988,11.5161 140.944988,11.1703 140.579988,10.9168 C140.218988,10.6633 139.761988,10.5366 139.206988,10.5366 C138.635988,10.5366 138.102988,10.6913 137.608988,11.0006 C137.114988,11.3056 136.702988,11.6922 136.371988,12.1605 Z M143.802988,22.9091 C143.545988,22.9091 143.317988,22.8876 143.119988,22.8447 C142.926988,22.806 142.793988,22.7674 142.720988,22.7287 L143.338988,21.3883 C143.691988,21.4828 144.004988,21.5108 144.279988,21.4721 C144.558988,21.4377 144.823988,21.3024 145.072988,21.0661 C145.325988,20.8342 145.589988,20.469 145.864988,19.9707 L146.290988,19.1974 L144.305988,9.2994 L145.890988,9.2994 L147.308988,17.2126 L147.411988,17.2126 L151.458988,9.2994 L153.172988,9.2994 L147.102988,20.6279 C146.818988,21.1564 146.507988,21.5881 146.167988,21.9232 C145.828988,22.2583 145.461988,22.5053 145.065988,22.6642 C144.670988,22.8275 144.249988,22.9091 143.802988,22.9091 Z M124.394988,11.5161 L122.951988,11.9027 C122.899988,11.6708 122.809988,11.4474 122.680988,11.2326 C122.555988,11.0135 122.362988,10.8352 122.100988,10.6977 C121.842988,10.5559 121.490988,10.4851 121.043988,10.4851 C120.437988,10.4851 119.911988,10.6247 119.464988,10.9039 C119.018988,11.1789 118.762988,11.529 118.698988,11.9543 C118.633988,12.328 118.719988,12.6266 118.955988,12.85 C119.192988,13.0734 119.587988,13.256 120.141988,13.3977 L121.559988,13.7586 C122.409988,13.9777 123.015988,14.3064 123.376988,14.7445 C123.741988,15.1784 123.866988,15.7434 123.750988,16.4393 C123.655988,17.0064 123.408988,17.5133 123.009988,17.9601 C122.609988,18.4069 122.098988,18.7592 121.475988,19.0169 C120.852988,19.2747 120.158988,19.4036 119.394988,19.4036 C118.375988,19.4036 117.572988,19.1845 116.983988,18.7463 C116.395988,18.3038 116.081988,17.6637 116.043988,16.826 L117.563988,16.4651 C117.602988,16.9935 117.791988,17.393 118.131988,17.6637 C118.474988,17.93 118.955988,18.0632 119.574988,18.0632 C120.283988,18.0632 120.874988,17.9129 121.346988,17.6121 C121.819988,17.3071 122.087988,16.942 122.152988,16.5166 C122.216988,16.1687 122.147988,15.8787 121.945988,15.6467 C121.748988,15.4147 121.404988,15.2407 120.914988,15.1247 L119.342988,14.7381 C118.466988,14.519 117.851988,14.1839 117.499988,13.7328 C117.151988,13.2818 117.035988,12.7147 117.151988,12.0316 C117.246988,11.4731 117.486988,10.9791 117.873988,10.5495 C118.264988,10.1199 118.753988,9.7827 119.342988,9.5378 C119.935988,9.2929 120.579988,9.1705 121.275988,9.1705 C122.255988,9.1705 122.987988,9.3853 123.473988,9.8149 C123.958988,10.2402 124.265988,10.8073 124.394988,11.5161 Z M114.105988,11.9027 L115.548988,11.5161 C115.420988,10.8073 115.112988,10.2402 114.627988,9.8149 C114.141988,9.3853 113.409988,9.1705 112.430988,9.1705 C111.734988,9.1705 111.089988,9.2929 110.496988,9.5378 C109.908988,9.7827 109.418988,10.1199 109.027988,10.5495 C108.640988,10.9791 108.400988,11.4731 108.305988,12.0316 C108.189988,12.7147 108.305988,13.2818 108.653988,13.7328 C109.006988,14.1839 109.620988,14.519 110.496988,14.7381 L112.069988,15.1247 C112.558988,15.2407 112.902988,15.4147 113.100988,15.6467 C113.302988,15.8787 113.370988,16.1687 113.306988,16.5166 C113.241988,16.942 112.973988,17.3071 112.500988,17.6121 C112.028988,17.9129 111.437988,18.0632 110.728988,18.0632 C110.110988,18.0632 109.629988,17.93 109.285988,17.6637 C108.945988,17.393 108.756988,16.9935 108.718988,16.4651 L107.197988,16.826 C107.236988,17.6637 107.549988,18.3038 108.138988,18.7463 C108.726988,19.1845 109.530988,19.4036 110.548988,19.4036 C111.313988,19.4036 112.006988,19.2747 112.629988,19.0169 C113.252988,18.7592 113.763988,18.4069 114.163988,17.9601 C114.562988,17.5133 114.809988,17.0064 114.904988,16.4393 C115.020988,15.7434 114.895988,15.1784 114.530988,14.7445 C114.169988,14.3064 113.564988,13.9777 112.713988,13.7586 L111.295988,13.3977 C110.741988,13.256 110.346988,13.0734 110.110988,12.85 C109.873988,12.6266 109.787988,12.328 109.852988,11.9543 C109.916988,11.529 110.172988,11.1789 110.619988,10.9039 C111.066988,10.6247 111.592988,10.4851 112.198988,10.4851 C112.644988,10.4851 112.997988,10.5559 113.254988,10.6977 C113.516988,10.8352 113.710988,11.0135 113.834988,11.2326 C113.963988,11.4474 114.053988,11.6708 114.105988,11.9027 Z M100.546988,19.4293 C99.9189885,19.4293 99.3689885,19.3112 98.8969885,19.0749 C98.4239885,18.8343 98.0739885,18.4885 97.8469885,18.0374 C97.6189885,17.5821 97.5569885,17.0322 97.6599885,16.3878 C97.7579885,15.8207 97.9499885,15.361 98.2329885,15.0087 C98.5169885,14.6522 98.8599885,14.3729 99.2639885,14.171 C99.6719885,13.9648 100.110988,13.8123 100.578988,13.7135 C101.050988,13.6104 101.521988,13.5309 101.989988,13.4751 C102.599988,13.3977 103.095988,13.3376 103.478988,13.2946 C103.860988,13.2517 104.148988,13.1808 104.341988,13.082 C104.534988,12.9832 104.653988,12.8135 104.696988,12.5729 L104.696988,12.5214 C104.799988,11.8898 104.715988,11.398 104.444988,11.0457 C104.174988,10.6891 103.690988,10.5108 102.994988,10.5108 C102.273988,10.5108 101.669988,10.6698 101.184988,10.9877 C100.698988,11.3056 100.339988,11.645 100.107988,12.0058 L98.7679885,11.4903 C99.1199885,10.8889 99.5409885,10.4206 100.030988,10.0855 C100.520988,9.7461 101.033988,9.5099 101.570988,9.3767 C102.107988,9.2392 102.625988,9.1705 103.123988,9.1705 C103.441988,9.1705 103.800988,9.2091 104.199988,9.2865 C104.599988,9.3595 104.973988,9.512 105.321988,9.744 C105.673988,9.976 105.937988,10.3261 106.113988,10.7944 C106.294988,11.2626 106.319988,11.8898 106.191988,12.676 L105.108988,19.1974 L103.587988,19.1974 L103.819988,17.857 L103.742988,17.857 C103.604988,18.0718 103.394988,18.3016 103.110988,18.5465 C102.831988,18.7914 102.477988,18.9997 102.047988,19.1716 C101.622988,19.3434 101.121988,19.4293 100.546988,19.4293 Z M100.984988,18.0632 C101.585988,18.0632 102.111988,17.9451 102.563988,17.7088 C103.018988,17.4725 103.383988,17.1675 103.658988,16.7937 C103.937988,16.42 104.111988,16.0269 104.180988,15.6145 L104.412988,14.2226 C104.335988,14.2999 104.182988,14.3708 103.954988,14.4352 C103.727988,14.4954 103.469988,14.5491 103.181988,14.5963 C102.898988,14.6393 102.621988,14.678 102.350988,14.7123 C102.084988,14.7424 101.869988,14.7682 101.705988,14.7897 C101.302988,14.8412 100.917988,14.925 100.552988,15.041 C100.191988,15.1527 99.8869885,15.3224 99.6379885,15.55 C99.3929885,15.7734 99.2409885,16.0785 99.1799885,16.4651 C99.0899885,16.9935 99.2169885,17.393 99.5609885,17.6637 C99.9039885,17.93 100.378988,18.0632 100.984988,18.0632 Z" id="形状" fill="#FFFFFF"></path>
                    </g>
                </g>
            </g>
        </g>
    </g>
</svg>